<?xml version="1.0" encoding="UTF-8" standalone="no"?>
<!DOCTYPE svg PUBLIC "-//W3C//DTD SVG 1.1//EN" "http://www.w3.org/Graphics/SVG/1.1/DTD/svg11.dtd">
<svg width="100%" height="100%" viewBox="0 0 1920 1080" version="1.1" xmlns="http://www.w3.org/2000/svg" xmlns:xlink="http://www.w3.org/1999/xlink" xml:space="preserve" xmlns:serif="http://www.serif.com/" style="fill-rule:evenodd;clip-rule:evenodd;stroke-linejoin:round;stroke-miterlimit:2;">
    <rect id="Artboard1" x="0" y="0" width="1920" height="1080" style="fill:none;"/>
    <g id="Artboard11" serif:id="Artboard1">
        <rect x="0" y="0" width="1920" height="1080" style="fill:white;"/>
        <path d="M1398.28,79.114C1333.19,115.686 1306.45,192.854 1307.34,270.023C1307.79,346.856 1335.87,423.018 1400.5,475.022C1465.59,526.692 1566.77,553.869 1642.55,534.409C1718.33,514.949 1768.26,449.188 1805.7,397.183C1842.7,345.514 1867.66,307.936 1879.69,260.964C1892.18,214.327 1892.18,158.296 1854.73,121.725C1817.29,85.154 1742.85,68.378 1654.14,57.641C1565.43,46.905 1462.91,42.543 1398.28,79.114Z" style="fill:rgb(238,238,238);fill-rule:nonzero;"/>
        <path d="M78.676,945.344C110.759,1004.29 185.895,1033.34 262.89,1038.58C339.52,1044.17 417.34,1025.89 473.534,974.22C529.424,922.142 563.324,837.037 549.019,770.205C534.715,703.373 472.511,655.224 423.182,618.904C374.157,582.994 338.372,558.554 292.352,544.526C246.696,530.14 190.834,525.781 151.856,555.212C112.877,584.642 91.146,647.502 74.476,723.128C57.806,798.754 46.563,886.786 78.676,945.344Z" style="fill:rgb(238,238,238);fill-rule:nonzero;"/>
        <path d="M307.041,171.299C328.589,199.162 325.959,237.092 311.307,269.807C296.911,302.463 270.618,329.619 232.891,339.584C195.032,349.322 145.995,341.81 116.631,319.22C87.266,296.629 77.706,259.187 71.032,229.962C64.49,200.963 60.578,180.241 64.025,157.954C67.217,135.726 77.574,111.85 100.621,103.331C123.668,94.812 159.148,101.71 199.717,113.872C240.286,126.034 285.687,143.52 307.041,171.299Z" style="fill:rgb(238,238,238);fill-rule:nonzero;"/>
        <path d="M1467.35,825.844C1440.54,860.41 1443.76,907.418 1461.91,947.946C1479.74,988.4 1512.36,1022.02 1559.21,1034.32C1606.22,1046.33 1667.14,1036.95 1703.65,1008.91C1740.16,980.869 1752.09,934.448 1760.42,898.215C1768.59,862.264 1773.48,836.574 1769.22,808.955C1765.29,781.41 1752.46,751.832 1723.85,741.306C1695.23,730.78 1651.15,739.38 1600.74,754.512C1550.33,769.645 1493.91,791.383 1467.35,825.844Z" style="fill:rgb(238,238,238);fill-rule:nonzero;"/>
        <path d="M814.956,570.968C795.578,596.351 798.146,631.061 811.575,661.059C824.771,691.001 848.716,715.971 882.931,725.27C917.264,734.363 961.636,727.731 988.118,707.21C1014.6,686.689 1023.08,652.485 1028.98,625.783C1034.76,599.289 1038.2,580.352 1034.97,559.948C1031.97,539.599 1022.48,517.707 1001.56,509.802C980.65,501.897 948.551,508.033 911.871,518.96C875.19,529.888 834.16,545.661 814.956,570.968Z" style="fill:rgb(238,238,238);fill-rule:nonzero;"/>
    </g>
</svg>
