<?xml version="1.0" encoding="UTF-8" standalone="no"?>
<!DOCTYPE svg PUBLIC "-//W3C//DTD SVG 1.1//EN" "http://www.w3.org/Graphics/SVG/1.1/DTD/svg11.dtd">
<svg width="100%" height="100%" viewBox="0 0 1920 1080" version="1.1" xmlns="http://www.w3.org/2000/svg" xmlns:xlink="http://www.w3.org/1999/xlink" xml:space="preserve" xmlns:serif="http://www.serif.com/" style="fill-rule:evenodd;clip-rule:evenodd;stroke-linejoin:round;stroke-miterlimit:2;">
    <rect id="Artboard2" x="0" y="0" width="1920" height="1080" style="fill:none;"/>
    <g id="Artboard21" serif:id="Artboard2">
        <rect x="-0" y="0" width="1920" height="1080" style="fill:white;"/>
        <path d="M1283.43,775.839C1318.1,841.952 1394.46,870.922 1471.62,872.267C1548.43,874.048 1625.38,848.184 1679.23,785.083C1732.77,721.527 1762.86,621.17 1745.61,544.859C1728.35,468.548 1664.07,416.738 1613.17,377.804C1562.59,339.324 1525.75,313.283 1479.15,299.892C1432.89,286.064 1376.89,284.441 1339.25,320.809C1301.61,357.177 1282.68,431.101 1269.38,519.459C1256.07,607.816 1248.74,710.171 1283.43,775.839Z" style="fill:rgb(238,238,238);fill-rule:nonzero;"/>
        <path d="M325.045,465.904C357.129,524.846 432.265,553.902 509.259,559.137C585.89,564.729 663.709,546.448 719.904,494.78C775.793,442.703 809.693,357.597 795.389,290.765C781.084,223.933 718.88,175.785 669.551,139.464C620.527,103.554 584.741,79.115 538.721,65.087C493.065,50.7 437.204,46.342 398.225,75.772C359.247,105.202 337.515,168.063 320.846,243.689C304.176,319.314 292.932,407.347 325.045,465.904Z" style="fill:rgb(238,238,238);fill-rule:nonzero;"/>
        <path d="M215.633,723.692C174.663,708.368 130.733,725.404 97.43,754.779C64.102,783.83 41.693,824.967 43.872,873.353C46.369,921.811 73.428,977.193 111.051,1003.72C148.673,1030.24 196.542,1027.84 233.615,1025.03C270.369,1022.14 296.351,1019.18 321.459,1006.92C346.592,994.975 371.022,973.935 372.57,943.485C374.117,913.035 352.807,873.499 323.38,829.864C293.952,786.228 256.431,738.816 215.633,723.692Z" style="fill:rgb(238,238,238);fill-rule:nonzero;"/>
    </g>
</svg>
