<?xml version="1.0" encoding="UTF-8" standalone="no"?>
<!DOCTYPE svg PUBLIC "-//W3C//DTD SVG 1.1//EN" "http://www.w3.org/Graphics/SVG/1.1/DTD/svg11.dtd">
<svg width="100%" height="100%" viewBox="0 0 1920 1080" version="1.1" xmlns="http://www.w3.org/2000/svg" xmlns:xlink="http://www.w3.org/1999/xlink" xml:space="preserve" xmlns:serif="http://www.serif.com/" style="fill-rule:evenodd;clip-rule:evenodd;stroke-linejoin:round;stroke-miterlimit:2;">
    <rect id="Artboard3" x="0" y="0" width="1920" height="1080" style="fill:none;"/>
    <g id="Artboard31" serif:id="Artboard3">
        <rect x="-0" y="0" width="1920" height="1080" style="fill:white;"/>
        <path d="M605.295,328.346C570.625,262.233 494.264,233.262 417.102,231.917C340.289,230.137 263.345,256.001 209.489,319.101C155.955,382.658 125.858,483.015 143.114,559.326C160.37,635.637 224.656,687.446 275.555,726.381C326.13,764.861 362.969,790.902 409.572,804.293C455.828,818.12 511.835,819.744 549.476,783.376C587.117,747.008 606.043,673.083 619.345,584.726C632.648,496.368 639.978,394.013 605.295,328.346Z" style="fill:rgb(238,238,238);fill-rule:nonzero;"/>
        <path d="M1563.68,638.28C1531.59,579.339 1456.46,550.282 1379.46,545.048C1302.83,539.455 1225.01,557.737 1168.82,609.404C1112.93,661.482 1079.03,746.587 1093.33,813.419C1107.64,880.251 1169.84,928.4 1219.17,964.72C1268.19,1000.63 1303.98,1025.07 1350,1039.1C1395.66,1053.48 1451.52,1057.84 1490.5,1028.41C1529.48,998.982 1551.21,936.122 1567.88,860.496C1584.55,784.87 1595.79,696.838 1563.68,638.28Z" style="fill:rgb(238,238,238);fill-rule:nonzero;"/>
        <path d="M1673.09,380.493C1714.06,395.817 1757.99,378.78 1791.29,349.405C1824.62,320.355 1847.03,279.218 1844.85,230.832C1842.35,182.374 1815.29,126.992 1777.67,100.467C1740.05,73.941 1692.18,76.345 1655.11,79.156C1618.35,82.04 1592.37,85.005 1567.26,97.27C1542.13,109.21 1517.7,130.25 1516.15,160.7C1514.61,191.15 1535.91,230.685 1565.34,274.321C1594.77,317.957 1632.29,365.368 1673.09,380.493Z" style="fill:rgb(238,238,238);fill-rule:nonzero;"/>
    </g>
</svg>
