<?xml version="1.0" encoding="UTF-8" standalone="no"?>
<!DOCTYPE svg PUBLIC "-//W3C//DTD SVG 1.1//EN" "http://www.w3.org/Graphics/SVG/1.1/DTD/svg11.dtd">
<svg width="100%" height="100%" viewBox="0 0 1920 1080" version="1.1" xmlns="http://www.w3.org/2000/svg" xmlns:xlink="http://www.w3.org/1999/xlink" xml:space="preserve" xmlns:serif="http://www.serif.com/" style="fill-rule:evenodd;clip-rule:evenodd;stroke-linejoin:round;stroke-miterlimit:2;">
    <rect id="Artboard4" x="0" y="0" width="1920" height="1080" style="fill:none;"/>
    <g id="Artboard41" serif:id="Artboard4">
        <rect x="-0" y="0" width="1920" height="1080" style="fill:white;"/>
        <path d="M575.94,769.94C541.27,836.053 464.909,865.024 387.747,866.369C310.934,868.15 233.99,842.286 180.134,779.185C126.6,715.629 96.503,615.271 113.759,538.96C131.015,462.649 195.301,410.84 246.2,371.905C296.775,333.425 333.614,307.385 380.217,293.993C426.473,280.166 482.48,278.542 520.121,314.91C557.762,351.279 576.688,425.203 589.99,513.56C603.293,601.918 610.623,704.273 575.94,769.94Z" style="fill:rgb(238,238,238);fill-rule:nonzero;"/>
        <path d="M1534.32,460.006C1502.24,518.948 1427.1,548.004 1350.11,553.238C1273.48,558.831 1195.66,540.549 1139.46,488.882C1083.57,436.804 1049.67,351.699 1063.98,284.867C1078.28,218.035 1140.49,169.886 1189.82,133.566C1238.84,97.656 1274.62,73.216 1320.64,59.188C1366.3,44.802 1422.16,40.443 1461.14,69.874C1500.12,99.304 1521.85,162.164 1538.52,237.79C1555.19,313.416 1566.43,401.448 1534.32,460.006Z" style="fill:rgb(238,238,238);fill-rule:nonzero;"/>
        <path d="M1643.73,717.793C1684.7,702.469 1728.63,719.506 1761.94,748.881C1795.26,777.931 1817.67,819.069 1815.49,867.454C1813,915.912 1785.94,971.294 1748.32,997.82C1710.69,1024.35 1662.82,1021.94 1625.75,1019.13C1589,1016.25 1563.02,1013.28 1537.91,1001.02C1512.77,989.076 1488.34,968.036 1486.8,937.586C1485.25,907.136 1506.56,867.601 1535.99,823.965C1565.41,780.329 1602.93,732.918 1643.73,717.793Z" style="fill:rgb(238,238,238);fill-rule:nonzero;"/>
    </g>
</svg>
