<?xml version="1.0" encoding="UTF-8" standalone="no"?>
<!DOCTYPE svg PUBLIC "-//W3C//DTD SVG 1.1//EN" "http://www.w3.org/Graphics/SVG/1.1/DTD/svg11.dtd">
<svg width="100%" height="100%" viewBox="0 0 438 438" version="1.1" xmlns="http://www.w3.org/2000/svg" xmlns:xlink="http://www.w3.org/1999/xlink" xml:space="preserve" xmlns:serif="http://www.serif.com/" style="fill-rule:evenodd;clip-rule:evenodd;stroke-linejoin:round;stroke-miterlimit:2;">
    <circle cx="218.544" cy="218.544" r="218.544" style="fill:white;"/>
    <g>
        <path d="M81.616,351.55C81.616,351.177 81.921,350.86 82.296,350.86C82.691,350.86 82.996,351.16 82.996,351.55L82.996,352.489C83.607,351.586 84.432,350.754 85.992,350.754C87.501,350.754 88.466,351.55 88.969,352.579C89.636,351.57 90.62,350.754 92.237,350.754C94.369,350.754 95.68,352.17 95.68,354.439L95.68,359.509C95.68,359.899 95.374,360.199 94.996,360.199C94.604,360.199 94.3,359.899 94.3,359.509L94.3,354.758C94.3,352.986 93.401,351.993 91.895,351.993C90.496,351.993 89.348,353.023 89.348,354.829L89.348,359.509C89.348,359.899 89.043,360.199 88.647,360.199C88.27,360.199 87.965,359.899 87.965,359.509L87.965,354.725C87.965,353.005 87.053,351.993 85.58,351.993C84.107,351.993 82.996,353.2 82.996,354.881L82.996,359.509C82.996,359.899 82.708,360.199 82.315,360.199C81.921,360.199 81.616,359.899 81.616,359.509L81.616,351.55Z" style="fill:rgb(244,119,41);fill-rule:nonzero;"/>
        <path d="M100.795,355.574L100.795,355.541C100.795,352.951 102.839,350.752 105.547,350.752C107.09,350.752 108.132,351.336 108.957,352.082C109.064,352.171 109.173,352.348 109.173,352.561C109.173,352.933 108.867,353.218 108.509,353.218C108.328,353.218 108.168,353.146 108.059,353.059C107.395,352.456 106.643,351.958 105.531,351.958C103.647,351.958 102.211,353.536 102.211,355.504L102.211,355.541C102.211,357.524 103.684,359.102 105.621,359.102C106.679,359.102 107.522,358.623 108.204,357.983C108.293,357.896 108.419,357.806 108.596,357.806C108.938,357.806 109.225,358.109 109.225,358.425C109.225,358.586 109.154,358.746 109.047,358.852C108.168,359.721 107.11,360.324 105.547,360.324C102.839,360.324 100.795,358.143 100.795,355.574" style="fill:rgb(244,119,41);fill-rule:nonzero;"/>
        <path d="M122.95,359.507C122.95,359.897 122.646,360.197 122.267,360.197C121.873,360.197 121.57,359.897 121.57,359.507L121.57,358.268C120.815,359.367 119.723,360.305 118.018,360.305C115.793,360.305 113.588,358.568 113.588,355.556L113.588,355.521C113.588,352.524 115.793,350.751 118.018,350.751C119.741,350.751 120.851,351.675 121.57,352.701L121.57,347.774C121.57,347.387 121.856,347.084 122.251,347.084C122.646,347.084 122.95,347.387 122.95,347.774L122.95,359.507ZM115.004,355.503L115.004,355.54C115.004,357.701 116.53,359.081 118.269,359.081C119.991,359.081 121.624,357.647 121.624,355.54L121.624,355.503C121.624,353.394 119.991,351.978 118.269,351.978C116.473,351.978 115.004,353.287 115.004,355.503" style="fill:rgb(244,119,41);fill-rule:nonzero;"/>
        <path d="M132.783,360.324C130.236,360.324 128.156,358.391 128.156,355.556L128.156,355.519C128.156,352.879 130.039,350.751 132.603,350.751C135.347,350.751 136.909,352.968 136.909,355.396C136.909,355.769 136.604,356.033 136.262,356.033L129.555,356.033C129.752,358.02 131.171,359.136 132.819,359.136C133.967,359.136 134.81,358.693 135.492,358.074C135.598,357.984 135.724,357.914 135.887,357.914C136.226,357.914 136.497,358.18 136.497,358.497C136.497,358.658 136.425,358.817 136.283,358.941C135.403,359.774 134.362,360.324 132.783,360.324M135.529,355.024C135.384,353.359 134.415,351.904 132.568,351.904C130.955,351.904 129.734,353.233 129.555,355.024L135.529,355.024Z" style="fill:rgb(244,119,41);fill-rule:nonzero;"/>
        <path d="M142.168,347.775C142.168,347.403 142.472,347.085 142.848,347.085C143.244,347.085 143.548,347.403 143.548,347.775L143.548,359.509C143.548,359.899 143.259,360.199 142.868,360.199C142.472,360.199 142.168,359.899 142.168,359.509L142.168,347.775Z" style="fill:rgb(244,119,41);fill-rule:nonzero;"/>
        <path d="M149.452,348.078C149.452,347.634 149.81,347.351 150.261,347.351C150.724,347.351 151.083,347.634 151.083,348.078L151.083,348.307C151.083,348.734 150.724,349.034 150.261,349.034C149.81,349.034 149.452,348.734 149.452,348.307L149.452,348.078ZM149.578,351.55C149.578,351.179 149.882,350.86 150.261,350.86C150.652,350.86 150.958,351.161 150.958,351.55L150.958,359.508C150.958,359.898 150.672,360.199 150.277,360.199C149.882,360.199 149.578,359.898 149.578,359.508L149.578,351.55Z" style="fill:rgb(244,119,41);fill-rule:nonzero;"/>
        <path d="M156.287,355.574L156.287,355.541C156.287,352.951 158.331,350.752 161.041,350.752C162.583,350.752 163.624,351.336 164.448,352.082C164.556,352.171 164.665,352.348 164.665,352.561C164.665,352.933 164.361,353.218 164,353.218C163.82,353.218 163.658,353.146 163.552,353.059C162.888,352.456 162.135,351.958 161.024,351.958C159.14,351.958 157.704,353.536 157.704,355.504L157.704,355.541C157.704,357.524 159.177,359.102 161.11,359.102C162.172,359.102 163.014,358.623 163.694,357.983C163.787,357.896 163.91,357.806 164.09,357.806C164.43,357.806 164.719,358.109 164.719,358.425C164.719,358.586 164.646,358.746 164.536,358.852C163.658,359.721 162.602,360.324 161.041,360.324C158.331,360.324 156.287,358.143 156.287,355.574" style="fill:rgb(244,119,41);fill-rule:nonzero;"/>
        <path d="M169.097,357.452L169.097,357.418C169.097,355.486 170.712,354.457 173.06,354.457C174.245,354.457 175.087,354.616 175.913,354.847L175.913,354.526C175.913,352.881 174.891,352.03 173.15,352.03C172.218,352.03 171.428,352.242 170.748,352.545C170.659,352.578 170.567,352.597 170.496,352.597C170.174,352.597 169.885,352.331 169.885,352.011C169.885,351.728 170.085,351.515 170.264,351.444C171.177,351.054 172.112,350.825 173.295,350.825C174.603,350.825 175.607,351.162 176.29,351.834C176.918,352.455 177.242,353.34 177.242,354.51L177.242,359.528C177.242,359.918 176.954,360.197 176.577,360.197C176.184,360.197 175.913,359.918 175.913,359.561L175.913,358.728C175.269,359.561 174.191,360.305 172.56,360.305C170.838,360.305 169.097,359.331 169.097,357.452M175.932,356.743L175.932,355.859C175.249,355.663 174.334,355.466 173.204,355.466C171.465,355.466 170.496,356.212 170.496,357.365L170.496,357.398C170.496,358.551 171.574,359.225 172.828,359.225C174.533,359.225 175.932,358.195 175.932,356.743" style="fill:rgb(244,119,41);fill-rule:nonzero;"/>
        <path d="M191.47,352.153L190.716,352.153C190.375,352.153 190.123,351.886 190.123,351.55C190.123,351.231 190.393,350.967 190.716,350.967L191.47,350.967L191.47,350.167C191.47,349.122 191.758,348.324 192.276,347.811C192.743,347.352 193.427,347.102 194.269,347.102C194.717,347.102 195.056,347.138 195.361,347.208C195.63,347.262 195.864,347.492 195.864,347.795C195.864,348.147 195.559,348.414 195.201,348.378C194.969,348.345 194.717,348.291 194.448,348.291C193.37,348.291 192.833,348.927 192.833,350.241L192.833,350.983L195.238,350.983C195.577,350.983 195.845,351.231 195.845,351.569C195.845,351.886 195.577,352.153 195.238,352.153L192.853,352.153L192.853,359.509C192.853,359.88 192.564,360.199 192.169,360.199C191.774,360.199 191.47,359.88 191.47,359.509L191.47,352.153Z" style="fill:rgb(244,119,41);fill-rule:nonzero;"/>
        <path d="M199.472,355.574L199.472,355.541C199.472,352.951 201.516,350.752 204.314,350.752C207.094,350.752 209.14,352.915 209.14,355.504L209.14,355.541C209.14,358.125 207.077,360.324 204.277,360.324C201.498,360.324 199.472,358.163 199.472,355.574M207.72,355.574L207.72,355.541C207.72,353.572 206.234,351.958 204.277,351.958C202.268,351.958 200.888,353.572 200.888,355.504L200.888,355.541C200.888,357.506 202.361,359.102 204.314,359.102C206.321,359.102 207.72,357.506 207.72,355.574" style="fill:rgb(244,119,41);fill-rule:nonzero;"/>
        <path d="M213.753,355.574L213.753,355.541C213.753,352.951 215.797,350.752 218.597,350.752C221.376,350.752 223.421,352.915 223.421,355.504L223.421,355.541C223.421,358.125 221.36,360.324 218.559,360.324C215.78,360.324 213.753,358.163 213.753,355.574M222.002,355.574L222.002,355.541C222.002,353.572 220.516,351.958 218.559,351.958C216.55,351.958 215.17,353.572 215.17,355.504L215.17,355.541C215.17,357.506 216.642,359.102 218.597,359.102C220.606,359.102 222.002,357.506 222.002,355.574" style="fill:rgb(244,119,41);fill-rule:nonzero;"/>
        <path d="M237.434,359.507C237.434,359.897 237.129,360.197 236.753,360.197C236.355,360.197 236.051,359.897 236.051,359.507L236.051,358.268C235.3,359.367 234.205,360.305 232.502,360.305C230.277,360.305 228.07,358.568 228.07,355.556L228.07,355.521C228.07,352.524 230.277,350.751 232.502,350.751C234.223,350.751 235.335,351.675 236.051,352.701L236.051,347.774C236.051,347.387 236.339,347.084 236.734,347.084C237.129,347.084 237.434,347.387 237.434,347.774L237.434,359.507ZM229.487,355.503L229.487,355.54C229.487,357.701 231.012,359.081 232.753,359.081C234.475,359.081 236.106,357.647 236.106,355.54L236.106,355.503C236.106,353.394 234.475,351.978 232.753,351.978C230.96,351.978 229.487,353.287 229.487,355.503" style="fill:rgb(244,119,41);fill-rule:nonzero;"/>
        <path d="M251.284,348.078C251.284,347.634 251.645,347.351 252.093,347.351C252.558,347.351 252.916,347.634 252.916,348.078L252.916,348.307C252.916,348.734 252.558,349.034 252.093,349.034C251.645,349.034 251.284,348.734 251.284,348.307L251.284,348.078ZM251.41,351.55C251.41,351.179 251.714,350.86 252.093,350.86C252.487,350.86 252.793,351.161 252.793,351.55L252.793,359.508C252.793,359.898 252.504,360.199 252.11,360.199C251.714,360.199 251.41,359.898 251.41,359.508L251.41,351.55Z" style="fill:rgb(244,119,41);fill-rule:nonzero;"/>
        <path d="M258.694,351.55C258.694,351.177 258.999,350.86 259.377,350.86C259.771,350.86 260.074,351.16 260.074,351.55L260.074,352.543C260.685,351.55 261.655,350.754 263.252,350.754C265.493,350.754 266.804,352.243 266.804,354.422L266.804,359.509C266.804,359.899 266.498,360.199 266.121,360.199C265.727,360.199 265.421,359.899 265.421,359.509L265.421,354.758C265.421,353.059 264.489,351.993 262.856,351.993C261.259,351.993 260.074,353.146 260.074,354.865L260.074,359.509C260.074,359.899 259.789,360.199 259.393,360.199C258.999,360.199 258.694,359.899 258.694,359.509L258.694,351.55Z" style="fill:rgb(244,119,41);fill-rule:nonzero;"/>
        <path d="M281.264,359.507C281.264,359.897 280.959,360.197 280.582,360.197C280.185,360.197 279.881,359.897 279.881,359.507L279.881,358.268C279.13,359.367 278.035,360.305 276.332,360.305C274.106,360.305 271.9,358.568 271.9,355.556L271.9,355.521C271.9,352.524 274.106,350.751 276.332,350.751C278.053,350.751 279.164,351.675 279.881,352.701L279.881,347.774C279.881,347.387 280.169,347.084 280.563,347.084C280.959,347.084 281.264,347.387 281.264,347.774L281.264,359.507ZM273.316,355.503L273.316,355.54C273.316,357.701 274.841,359.081 276.583,359.081C278.305,359.081 279.936,357.647 279.936,355.54L279.936,355.503C279.936,353.394 278.305,351.978 276.583,351.978C274.789,351.978 273.316,353.287 273.316,355.503" style="fill:rgb(244,119,41);fill-rule:nonzero;"/>
        <path d="M286.468,355.574L286.468,355.541C286.468,352.951 288.512,350.752 291.31,350.752C294.093,350.752 296.136,352.915 296.136,355.504L296.136,355.541C296.136,358.125 294.073,360.324 291.276,360.324C288.494,360.324 286.468,358.163 286.468,355.574M294.719,355.574L294.719,355.541C294.719,353.572 293.231,351.958 291.276,351.958C289.267,351.958 287.884,353.572 287.884,355.504L287.884,355.541C287.884,357.506 289.357,359.102 291.31,359.102C293.32,359.102 294.719,357.506 294.719,355.574" style="fill:rgb(244,119,41);fill-rule:nonzero;"/>
        <path d="M301.322,351.55C301.322,351.177 301.627,350.86 302.005,350.86C302.399,350.86 302.702,351.16 302.702,351.55L302.702,352.543C303.313,351.55 304.284,350.754 305.88,350.754C308.121,350.754 309.432,352.243 309.432,354.422L309.432,359.509C309.432,359.899 309.126,360.199 308.749,360.199C308.355,360.199 308.049,359.899 308.049,359.509L308.049,354.758C308.049,353.059 307.116,351.993 305.484,351.993C303.887,351.993 302.702,353.146 302.702,354.865L302.702,359.509C302.702,359.899 302.417,360.199 302.022,360.199C301.627,360.199 301.322,359.899 301.322,359.509L301.322,351.55Z" style="fill:rgb(244,119,41);fill-rule:nonzero;"/>
        <path d="M319.119,360.324C316.572,360.324 314.492,358.391 314.492,355.556L314.492,355.519C314.492,352.879 316.376,350.751 318.939,350.751C321.684,350.751 323.245,352.968 323.245,355.396C323.245,355.769 322.94,356.033 322.601,356.033L315.892,356.033C316.088,358.02 317.507,359.136 319.155,359.136C320.303,359.136 321.149,358.693 321.829,358.074C321.936,357.984 322.06,357.914 322.224,357.914C322.562,357.914 322.835,358.18 322.835,358.497C322.835,358.658 322.761,358.817 322.619,358.941C321.739,359.774 320.698,360.324 319.119,360.324M321.865,355.024C321.723,353.359 320.751,351.904 318.904,351.904C317.291,351.904 316.07,353.233 315.892,355.024L321.865,355.024Z" style="fill:rgb(244,119,41);fill-rule:nonzero;"/>
        <path d="M327.877,359.136C327.75,359.049 327.624,358.869 327.624,358.64C327.624,358.32 327.894,358.053 328.235,358.053C328.361,358.053 328.487,358.089 328.575,358.16C329.525,358.8 330.514,359.136 331.515,359.136C332.63,359.136 333.436,358.569 333.436,357.683L333.436,357.647C333.436,356.727 332.342,356.371 331.124,356.034C329.671,355.628 328.056,355.13 328.056,353.446L328.056,353.413C328.056,351.832 329.383,350.79 331.214,350.79C332.198,350.79 333.274,351.09 334.173,351.569C334.351,351.674 334.513,351.87 334.513,352.135C334.513,352.456 334.245,352.72 333.903,352.72C333.777,352.72 333.671,352.683 333.599,352.649C332.808,352.206 331.966,351.94 331.176,351.94C330.082,351.94 329.383,352.509 329.383,353.272L329.383,353.305C329.383,354.175 330.531,354.511 331.768,354.881C333.203,355.307 334.745,355.857 334.745,357.506L334.745,357.543C334.745,359.277 333.293,360.288 331.446,360.288C330.225,360.288 328.881,359.845 327.877,359.136" style="fill:rgb(244,119,41);fill-rule:nonzero;"/>
        <path d="M340.004,348.078C340.004,347.634 340.365,347.351 340.81,347.351C341.276,347.351 341.634,347.634 341.634,348.078L341.634,348.307C341.634,348.734 341.276,349.034 340.81,349.034C340.365,349.034 340.004,348.734 340.004,348.307L340.004,348.078ZM340.13,351.55C340.13,351.179 340.434,350.86 340.81,350.86C341.207,350.86 341.513,351.161 341.513,351.55L341.513,359.508C341.513,359.898 341.224,360.199 340.828,360.199C340.434,360.199 340.13,359.898 340.13,359.508L340.13,351.55Z" style="fill:rgb(244,119,41);fill-rule:nonzero;"/>
        <path d="M346.715,357.452L346.715,357.418C346.715,355.486 348.33,354.457 350.678,354.457C351.863,354.457 352.705,354.616 353.531,354.847L353.531,354.526C353.531,352.881 352.509,352.03 350.768,352.03C349.836,352.03 349.046,352.242 348.366,352.545C348.275,352.578 348.185,352.597 348.114,352.597C347.792,352.597 347.503,352.331 347.503,352.011C347.503,351.728 347.701,351.515 347.882,351.444C348.795,351.054 349.727,350.825 350.913,350.825C352.221,350.825 353.225,351.162 353.908,351.834C354.536,352.455 354.858,353.34 354.858,354.51L354.858,359.528C354.858,359.918 354.572,360.197 354.194,360.197C353.802,360.197 353.531,359.918 353.531,359.561L353.531,358.728C352.885,359.561 351.809,360.305 350.177,360.305C348.456,360.305 346.715,359.331 346.715,357.452M353.55,356.743L353.55,355.859C352.867,355.663 351.952,355.466 350.822,355.466C349.082,355.466 348.114,356.212 348.114,357.365L348.114,357.398C348.114,358.551 349.191,359.225 350.446,359.225C352.151,359.225 353.55,358.195 353.55,356.743" style="fill:rgb(244,119,41);fill-rule:nonzero;"/>
        <path d="M81.649,288.965C81.649,285.948 84.063,283.56 87.116,283.56L88.322,283.56C90.666,283.56 92.301,284.755 93.293,286.368L106.5,307.635L119.777,286.299C120.914,284.474 122.475,283.56 124.676,283.56L125.882,283.56C128.935,283.56 131.35,285.948 131.35,288.965L131.35,327.992C131.35,331.011 128.935,333.396 125.882,333.396C122.901,333.396 120.488,330.942 120.488,327.992L120.488,303.495L110.901,318.093C109.766,319.778 108.346,320.832 106.359,320.832C104.369,320.832 102.949,319.778 101.814,318.093L92.371,303.705L92.371,328.132C92.371,331.08 89.956,333.396 86.974,333.396C83.993,333.396 81.649,331.08 81.649,328.132L81.649,288.965Z" style="fill:rgb(244,119,41);fill-rule:nonzero;"/>
        <path d="M151.024,308.549L151.024,308.408C151.024,294.44 161.673,283 176.938,283C184.396,283 189.433,284.965 193.552,287.982C194.688,288.826 195.683,290.37 195.683,292.263C195.683,295.212 193.269,297.527 190.289,297.527C188.797,297.527 187.802,296.967 187.019,296.476C183.969,294.23 180.774,292.965 176.869,292.965C168.491,292.965 162.454,299.848 162.454,308.269L162.454,308.408C162.454,316.832 168.349,323.852 176.869,323.852C181.485,323.852 184.535,322.447 187.66,319.99C188.511,319.288 189.649,318.797 190.925,318.797C193.695,318.797 196.039,321.044 196.039,323.779C196.039,325.464 195.187,326.799 194.194,327.641C189.719,331.502 184.465,333.818 176.514,333.818C161.889,333.818 151.024,322.656 151.024,308.549" style="fill:rgb(244,119,41);fill-rule:nonzero;"/>
        <path d="M252.009,328.262C252.009,331.09 249.694,333.378 246.832,333.378C243.974,333.378 241.657,331.09 241.657,328.262L241.657,327.789C239.138,331.158 235.663,333.648 230.286,333.648C221.772,333.648 213.667,327.052 213.667,314.999L213.667,314.865C213.667,302.811 221.633,296.214 230.286,296.214C235.8,296.214 239.204,298.704 241.657,301.598L241.657,288.538C241.657,285.709 243.974,283.422 246.832,283.422C249.694,283.422 252.009,285.709 252.009,288.538L252.009,328.262ZM224.019,314.865L224.019,314.999C224.019,320.99 228.104,324.963 232.942,324.963C237.776,324.963 241.793,320.99 241.793,314.999L241.793,314.865C241.793,308.872 237.776,304.899 232.942,304.899C228.104,304.899 224.019,308.804 224.019,314.865" style="fill:rgb(244,119,41);fill-rule:nonzero;"/>
        <path d="M285.385,333.784C274.421,333.784 266.318,326.176 266.318,315.135L266.318,314.999C266.318,304.696 273.741,296.214 284.363,296.214C296.555,296.214 301.936,306.111 301.936,313.584C301.936,316.549 299.824,318.5 297.1,318.5L276.6,318.5C277.624,323.145 280.891,325.57 285.522,325.57C288.383,325.57 290.765,324.693 292.877,323.145C293.625,322.607 294.308,322.337 295.398,322.337C297.712,322.337 299.415,324.087 299.415,326.378C299.415,327.723 298.802,328.733 298.054,329.407C294.853,332.101 290.698,333.784 285.385,333.784M292.06,312.102C291.447,307.524 288.723,304.428 284.363,304.428C280.072,304.428 277.282,307.459 276.463,312.102L292.06,312.102Z" style="fill:rgb(244,119,41);fill-rule:nonzero;"/>
        <path d="M317.128,288.539C317.128,285.71 319.444,283.423 322.305,283.423C325.164,283.423 327.479,285.71 327.479,288.539L327.479,328.263C327.479,331.091 325.164,333.379 322.305,333.379C319.444,333.379 317.128,331.091 317.128,328.263L317.128,288.539Z" style="fill:rgb(244,119,41);fill-rule:nonzero;"/>
        <path d="M343.894,288.27C343.894,285.306 346.415,283.49 349.684,283.49C352.953,283.49 355.473,285.306 355.473,288.27L355.473,288.403C355.473,291.366 352.953,293.251 349.684,293.251C346.415,293.251 343.894,291.366 343.894,288.403L343.894,288.27ZM344.509,301.599C344.509,298.774 346.824,296.484 349.684,296.484C352.543,296.484 354.859,298.774 354.859,301.599L354.859,328.264C354.859,331.092 352.543,333.38 349.684,333.38C346.824,333.38 344.509,331.092 344.509,328.264L344.509,301.599Z" style="fill:rgb(244,119,41);fill-rule:nonzero;"/>
        <path d="M216.461,124.213C212.232,124.213 208.804,127.703 208.804,132.009L208.804,188.405C208.804,192.712 212.232,196.201 216.461,196.201L222.104,196.201C226.335,196.201 229.76,192.712 229.76,188.405L229.76,132.009C229.76,127.703 226.335,124.213 222.104,124.213L216.461,124.213Z" style="fill:rgb(252,179,43);fill-rule:nonzero;"/>
        <path d="M174.36,196.202L179.566,196.202C183.915,196.202 187.441,192.717 187.441,188.417L187.441,113.084L187.448,113.084C187.524,104.454 194.615,97.481 203.361,97.481C207.474,97.481 211.223,99.024 214.048,101.554L214.095,101.596C217.065,104.241 221.5,104.241 224.47,101.599L224.517,101.554C227.342,99.024 231.09,97.481 235.204,97.481C243.95,97.481 251.045,104.454 251.117,113.084L251.124,113.084L251.124,188.417C251.124,192.717 254.65,196.202 258.999,196.202L264.205,196.202C268.554,196.202 272.081,192.717 272.081,188.417L272.081,108.716C272.081,97.486 263.653,84.408 253.231,79.931C242.303,75.237 231.555,76.059 222.952,80.426C220.634,81.6 217.931,81.6 215.616,80.426C207.01,76.059 196.264,75.237 185.335,79.931C174.916,84.408 166.486,97.486 166.486,108.716L166.486,188.417C166.486,192.717 170.011,196.202 174.36,196.202" style="fill:rgb(252,179,43);fill-rule:nonzero;"/>
        <path d="M354.765,143.188C353.031,142.51 349.768,146.401 347.472,151.879L335.261,180.944C333.184,185.9 330.542,189.588 329.393,189.14C328.242,188.689 329,184.266 331.077,179.31L343.288,150.244C345.584,144.767 346.038,139.778 344.306,139.101C342.573,138.426 339.307,142.317 337.012,147.791L337.012,147.794L324.804,176.86C322.724,181.816 320.083,185.503 318.932,185.052C317.782,184.606 318.54,180.181 320.619,175.225L332.828,146.158L332.828,146.157C335.123,140.682 335.579,135.692 333.848,135.016C332.114,134.339 328.848,138.23 326.553,143.706L314.343,172.772C312.266,177.728 309.625,181.416 308.474,180.968L308.472,180.968C307.321,180.518 308.082,176.095 310.16,171.138L322.368,142.072L322.37,142.072C324.664,136.595 325.12,131.606 323.387,130.931C321.656,130.254 318.39,134.145 316.095,139.619C309.693,151.714 305.535,159.662 302.223,166.84L298.014,176.882C294.658,184.891 295.109,193.302 298.513,199.722C279.847,225.269 250.172,240.498 218.563,240.529C185.536,240.558 154.565,223.821 136.138,196.164C141.385,186.961 142.118,173.487 137.094,160.284C129.491,140.309 111.593,128.54 97.118,134C82.641,139.459 77.069,160.077 84.672,180.054C91.513,198.027 106.689,209.349 120.208,207.46C142.297,240.255 179.208,260.362 218.563,260.317C256.755,260.275 292.574,241.486 314.871,210.404C324.867,211.01 335.225,204.259 339.849,193.226L344.058,183.184C346.85,175.806 349.632,167.321 353.743,154.338C353.743,154.336 353.746,154.333 353.746,154.332C356.041,148.853 356.499,143.867 354.765,143.188" style="fill:rgb(252,179,43);fill-rule:nonzero;"/>
    </g>
</svg>
