<?xml version="1.0" encoding="UTF-8" standalone="no"?>
<!DOCTYPE svg PUBLIC "-//W3C//DTD SVG 1.1//EN" "http://www.w3.org/Graphics/SVG/1.1/DTD/svg11.dtd">
<svg width="100%" height="100%" viewBox="0 0 691 342" version="1.1" xmlns="http://www.w3.org/2000/svg" xmlns:xlink="http://www.w3.org/1999/xlink" xml:space="preserve" xmlns:serif="http://www.serif.com/" style="fill-rule:evenodd;clip-rule:evenodd;stroke-linejoin:round;stroke-miterlimit:2;">
    <path d="M690.783,179.867C644.483,179.867 600.903,201.734 573.227,238.852C527.22,300.417 442.368,341.749 345.392,341.749C248.415,341.749 163.563,300.417 117.55,238.857C89.876,201.74 46.298,179.875 0,179.875C0,179.867 0,179.867 0,179.867L0,0L690.783,0L690.783,179.867L690.783,179.867Z" style="fill:white;"/>
    <clipPath id="_clip1">
        <path d="M690.783,179.867C644.483,179.867 600.903,201.734 573.227,238.852C527.22,300.417 442.368,341.749 345.392,341.749C248.415,341.749 163.563,300.417 117.55,238.857C89.876,201.74 46.298,179.875 0,179.875C0,179.867 0,179.867 0,179.867L0,0L690.783,0L690.783,179.867L690.783,179.867Z"/>
    </clipPath>
    <g clip-path="url(#_clip1)">
        <g>
            <path d="M208.464,284.787C208.464,284.414 208.769,284.097 209.144,284.097C209.538,284.097 209.844,284.397 209.844,284.787L209.844,285.726C210.455,284.823 211.279,283.991 212.839,283.991C214.348,283.991 215.314,284.787 215.817,285.816C216.484,284.807 217.468,283.991 219.085,283.991C221.217,283.991 222.528,285.407 222.528,287.676L222.528,292.746C222.528,293.135 222.222,293.436 221.843,293.436C221.452,293.436 221.147,293.135 221.147,292.746L221.147,287.995C221.147,286.223 220.249,285.23 218.742,285.23C217.343,285.23 216.195,286.26 216.195,288.066L216.195,292.746C216.195,293.135 215.891,293.436 215.495,293.436C215.118,293.436 214.812,293.135 214.812,292.746L214.812,287.962C214.812,286.242 213.9,285.23 212.428,285.23C210.955,285.23 209.844,286.436 209.844,288.118L209.844,292.746C209.844,293.135 209.556,293.436 209.163,293.436C208.769,293.436 208.464,293.135 208.464,292.746L208.464,284.787Z" style="fill:rgb(244,119,41);fill-rule:nonzero;"/>
            <path d="M227.643,288.811L227.643,288.777C227.643,286.188 229.687,283.989 232.395,283.989C233.937,283.989 234.98,284.573 235.805,285.318C235.912,285.408 236.021,285.585 236.021,285.798C236.021,286.169 235.715,286.455 235.357,286.455C235.175,286.455 235.016,286.383 234.907,286.296C234.243,285.692 233.491,285.195 232.379,285.195C230.494,285.195 229.059,286.773 229.059,288.741L229.059,288.777C229.059,290.761 230.532,292.339 232.469,292.339C233.527,292.339 234.369,291.859 235.052,291.22C235.141,291.133 235.267,291.043 235.444,291.043C235.786,291.043 236.073,291.346 236.073,291.662C236.073,291.823 236.002,291.983 235.894,292.089C235.016,292.958 233.958,293.561 232.395,293.561C229.687,293.561 227.643,291.38 227.643,288.811" style="fill:rgb(244,119,41);fill-rule:nonzero;"/>
            <path d="M249.798,292.744C249.798,293.134 249.494,293.434 249.115,293.434C248.721,293.434 248.418,293.134 248.418,292.744L248.418,291.505C247.663,292.604 246.571,293.542 244.866,293.542C242.641,293.542 240.436,291.805 240.436,288.793L240.436,288.758C240.436,285.761 242.641,283.988 244.866,283.988C246.588,283.988 247.699,284.912 248.418,285.938L248.418,281.011C248.418,280.624 248.703,280.321 249.099,280.321C249.494,280.321 249.798,280.624 249.798,281.011L249.798,292.744ZM241.852,288.74L241.852,288.777C241.852,290.938 243.377,292.318 245.117,292.318C246.839,292.318 248.472,290.884 248.472,288.777L248.472,288.74C248.472,286.631 246.839,285.215 245.117,285.215C243.321,285.215 241.852,286.524 241.852,288.74" style="fill:rgb(244,119,41);fill-rule:nonzero;"/>
            <path d="M259.631,293.561C257.084,293.561 255.003,291.628 255.003,288.793L255.003,288.756C255.003,286.116 256.887,283.988 259.451,283.988C262.195,283.988 263.757,286.205 263.757,288.633C263.757,289.006 263.452,289.269 263.11,289.269L256.402,289.269C256.599,291.257 258.019,292.373 259.667,292.373C260.815,292.373 261.657,291.93 262.34,291.311C262.446,291.221 262.572,291.151 262.735,291.151C263.074,291.151 263.345,291.416 263.345,291.734C263.345,291.895 263.272,292.054 263.13,292.178C262.25,293.011 261.209,293.561 259.631,293.561M262.376,288.26C262.232,286.596 261.263,285.141 259.416,285.141C257.803,285.141 256.582,286.47 256.402,288.26L262.376,288.26Z" style="fill:rgb(244,119,41);fill-rule:nonzero;"/>
            <path d="M269.016,281.012C269.016,280.64 269.32,280.322 269.696,280.322C270.091,280.322 270.396,280.64 270.396,281.012L270.396,292.746C270.396,293.136 270.107,293.436 269.716,293.436C269.32,293.436 269.016,293.136 269.016,292.746L269.016,281.012Z" style="fill:rgb(244,119,41);fill-rule:nonzero;"/>
            <path d="M276.299,281.315C276.299,280.871 276.658,280.588 277.108,280.588C277.572,280.588 277.93,280.871 277.93,281.315L277.93,281.544C277.93,281.971 277.572,282.271 277.108,282.271C276.658,282.271 276.299,281.971 276.299,281.544L276.299,281.315ZM276.426,284.787C276.426,284.415 276.73,284.097 277.108,284.097C277.5,284.097 277.806,284.398 277.806,284.787L277.806,292.745C277.806,293.135 277.52,293.435 277.124,293.435C276.73,293.435 276.426,293.135 276.426,292.745L276.426,284.787Z" style="fill:rgb(244,119,41);fill-rule:nonzero;"/>
            <path d="M283.135,288.811L283.135,288.777C283.135,286.188 285.179,283.989 287.889,283.989C289.431,283.989 290.472,284.573 291.295,285.318C291.404,285.408 291.513,285.585 291.513,285.798C291.513,286.169 291.208,286.455 290.848,286.455C290.668,286.455 290.505,286.383 290.4,286.296C289.736,285.692 288.983,285.195 287.871,285.195C285.988,285.195 284.552,286.773 284.552,288.741L284.552,288.777C284.552,290.761 286.024,292.339 287.958,292.339C289.019,292.339 289.862,291.859 290.542,291.22C290.634,291.133 290.758,291.043 290.937,291.043C291.278,291.043 291.567,291.346 291.567,291.662C291.567,291.823 291.494,291.983 291.384,292.089C290.505,292.958 289.45,293.561 287.889,293.561C285.179,293.561 283.135,291.38 283.135,288.811" style="fill:rgb(244,119,41);fill-rule:nonzero;"/>
            <path d="M295.944,290.689L295.944,290.655C295.944,288.723 297.559,287.694 299.908,287.694C301.092,287.694 301.935,287.853 302.761,288.084L302.761,287.763C302.761,286.118 301.739,285.267 299.998,285.267C299.066,285.267 298.276,285.479 297.596,285.782C297.507,285.815 297.414,285.834 297.343,285.834C297.022,285.834 296.733,285.568 296.733,285.248C296.733,284.965 296.933,284.752 297.111,284.681C298.025,284.291 298.96,284.062 300.143,284.062C301.45,284.062 302.455,284.399 303.138,285.071C303.766,285.692 304.09,286.577 304.09,287.747L304.09,292.765C304.09,293.155 303.802,293.434 303.425,293.434C303.032,293.434 302.761,293.155 302.761,292.798L302.761,291.964C302.117,292.798 301.039,293.542 299.408,293.542C297.686,293.542 295.944,292.568 295.944,290.689M302.78,289.98L302.78,289.095C302.097,288.9 301.182,288.703 300.051,288.703C298.313,288.703 297.343,289.449 297.343,290.602L297.343,290.635C297.343,291.788 298.422,292.462 299.676,292.462C301.381,292.462 302.78,291.432 302.78,289.98" style="fill:rgb(244,119,41);fill-rule:nonzero;"/>
            <path d="M318.318,285.39L317.564,285.39C317.223,285.39 316.971,285.123 316.971,284.787C316.971,284.468 317.241,284.204 317.564,284.204L318.318,284.204L318.318,283.404C318.318,282.359 318.606,281.561 319.124,281.048C319.59,280.588 320.275,280.339 321.117,280.339C321.565,280.339 321.904,280.375 322.209,280.445C322.478,280.499 322.712,280.729 322.712,281.032C322.712,281.384 322.407,281.651 322.049,281.615C321.817,281.581 321.565,281.528 321.295,281.528C320.218,281.528 319.68,282.164 319.68,283.478L319.68,284.22L322.085,284.22C322.425,284.22 322.693,284.468 322.693,284.806C322.693,285.123 322.425,285.39 322.085,285.39L319.701,285.39L319.701,292.746C319.701,293.117 319.412,293.436 319.016,293.436C318.622,293.436 318.318,293.117 318.318,292.746L318.318,285.39Z" style="fill:rgb(244,119,41);fill-rule:nonzero;"/>
            <path d="M326.319,288.811L326.319,288.777C326.319,286.188 328.363,283.989 331.161,283.989C333.942,283.989 335.987,286.152 335.987,288.741L335.987,288.777C335.987,291.362 333.924,293.561 331.125,293.561C328.346,293.561 326.319,291.4 326.319,288.811M334.568,288.811L334.568,288.777C334.568,286.809 333.082,285.195 331.125,285.195C329.116,285.195 327.736,286.809 327.736,288.741L327.736,288.777C327.736,290.743 329.209,292.339 331.161,292.339C333.169,292.339 334.568,290.743 334.568,288.811" style="fill:rgb(244,119,41);fill-rule:nonzero;"/>
            <path d="M340.601,288.811L340.601,288.777C340.601,286.188 342.645,283.989 345.444,283.989C348.223,283.989 350.269,286.152 350.269,288.741L350.269,288.777C350.269,291.362 348.207,293.561 345.407,293.561C342.628,293.561 340.601,291.4 340.601,288.811M348.85,288.811L348.85,288.777C348.85,286.809 347.364,285.195 345.407,285.195C343.397,285.195 342.017,286.809 342.017,288.741L342.017,288.777C342.017,290.743 343.49,292.339 345.444,292.339C347.454,292.339 348.85,290.743 348.85,288.811" style="fill:rgb(244,119,41);fill-rule:nonzero;"/>
            <path d="M364.282,292.744C364.282,293.134 363.977,293.434 363.6,293.434C363.203,293.434 362.899,293.134 362.899,292.744L362.899,291.505C362.148,292.604 361.053,293.542 359.35,293.542C357.125,293.542 354.918,291.805 354.918,288.793L354.918,288.758C354.918,285.761 357.125,283.988 359.35,283.988C361.071,283.988 362.182,284.912 362.899,285.938L362.899,281.011C362.899,280.624 363.187,280.321 363.581,280.321C363.977,280.321 364.282,280.624 364.282,281.011L364.282,292.744ZM356.334,288.74L356.334,288.777C356.334,290.938 357.86,292.318 359.601,292.318C361.323,292.318 362.954,290.884 362.954,288.777L362.954,288.74C362.954,286.631 361.323,285.215 359.601,285.215C357.807,285.215 356.334,286.524 356.334,288.74" style="fill:rgb(244,119,41);fill-rule:nonzero;"/>
            <path d="M378.132,281.315C378.132,280.871 378.493,280.588 378.94,280.588C379.406,280.588 379.764,280.871 379.764,281.315L379.764,281.544C379.764,281.971 379.406,282.271 378.94,282.271C378.493,282.271 378.132,281.971 378.132,281.544L378.132,281.315ZM378.258,284.787C378.258,284.415 378.562,284.097 378.94,284.097C379.335,284.097 379.641,284.398 379.641,284.787L379.641,292.745C379.641,293.135 379.352,293.435 378.958,293.435C378.562,293.435 378.258,293.135 378.258,292.745L378.258,284.787Z" style="fill:rgb(244,119,41);fill-rule:nonzero;"/>
            <path d="M385.542,284.787C385.542,284.414 385.846,284.097 386.225,284.097C386.619,284.097 386.922,284.397 386.922,284.787L386.922,285.78C387.532,284.787 388.502,283.991 390.1,283.991C392.341,283.991 393.652,285.48 393.652,287.659L393.652,292.746C393.652,293.135 393.346,293.436 392.969,293.436C392.575,293.436 392.269,293.135 392.269,292.746L392.269,287.995C392.269,286.296 391.336,285.23 389.704,285.23C388.107,285.23 386.922,286.383 386.922,288.102L386.922,292.746C386.922,293.135 386.637,293.436 386.241,293.436C385.846,293.436 385.542,293.135 385.542,292.746L385.542,284.787Z" style="fill:rgb(244,119,41);fill-rule:nonzero;"/>
            <path d="M408.111,292.744C408.111,293.134 407.807,293.434 407.43,293.434C407.033,293.434 406.728,293.134 406.728,292.744L406.728,291.505C405.977,292.604 404.883,293.542 403.18,293.542C400.954,293.542 398.748,291.805 398.748,288.793L398.748,288.758C398.748,285.761 400.954,283.988 403.18,283.988C404.9,283.988 406.012,284.912 406.728,285.938L406.728,281.011C406.728,280.624 407.017,280.321 407.411,280.321C407.807,280.321 408.111,280.624 408.111,281.011L408.111,292.744ZM400.164,288.74L400.164,288.777C400.164,290.938 401.689,292.318 403.43,292.318C405.153,292.318 406.783,290.884 406.783,288.777L406.783,288.74C406.783,286.631 405.153,285.215 403.43,285.215C401.637,285.215 400.164,286.524 400.164,288.74" style="fill:rgb(244,119,41);fill-rule:nonzero;"/>
            <path d="M413.315,288.811L413.315,288.777C413.315,286.188 415.36,283.989 418.157,283.989C420.941,283.989 422.983,286.152 422.983,288.741L422.983,288.777C422.983,291.362 420.921,293.561 418.124,293.561C415.342,293.561 413.315,291.4 413.315,288.811M421.567,288.811L421.567,288.777C421.567,286.809 420.078,285.195 418.124,285.195C416.115,285.195 414.732,286.809 414.732,288.741L414.732,288.777C414.732,290.743 416.205,292.339 418.157,292.339C420.168,292.339 421.567,290.743 421.567,288.811" style="fill:rgb(244,119,41);fill-rule:nonzero;"/>
            <path d="M428.17,284.787C428.17,284.414 428.474,284.097 428.853,284.097C429.247,284.097 429.55,284.397 429.55,284.787L429.55,285.78C430.16,284.787 431.132,283.991 432.728,283.991C434.969,283.991 436.279,285.48 436.279,287.659L436.279,292.746C436.279,293.135 435.974,293.436 435.597,293.436C435.202,293.436 434.896,293.135 434.896,292.746L434.896,287.995C434.896,286.296 433.964,285.23 432.332,285.23C430.734,285.23 429.55,286.383 429.55,288.102L429.55,292.746C429.55,293.135 429.264,293.436 428.87,293.436C428.474,293.436 428.17,293.135 428.17,292.746L428.17,284.787Z" style="fill:rgb(244,119,41);fill-rule:nonzero;"/>
            <path d="M445.967,293.561C443.42,293.561 441.339,291.628 441.339,288.793L441.339,288.756C441.339,286.116 443.224,283.988 445.787,283.988C448.531,283.988 450.093,286.205 450.093,288.633C450.093,289.006 449.788,289.269 449.449,289.269L442.74,289.269C442.936,291.257 444.355,292.373 446.003,292.373C447.151,292.373 447.996,291.93 448.676,291.311C448.784,291.221 448.908,291.151 449.072,291.151C449.41,291.151 449.682,291.416 449.682,291.734C449.682,291.895 449.608,292.054 449.466,292.178C448.586,293.011 447.546,293.561 445.967,293.561M448.713,288.26C448.57,286.596 447.599,285.141 445.752,285.141C444.139,285.141 442.918,286.47 442.74,288.26L448.713,288.26Z" style="fill:rgb(244,119,41);fill-rule:nonzero;"/>
            <path d="M454.724,292.373C454.598,292.286 454.472,292.106 454.472,291.877C454.472,291.557 454.742,291.29 455.082,291.29C455.209,291.29 455.335,291.326 455.423,291.397C456.373,292.036 457.361,292.373 458.363,292.373C459.478,292.373 460.284,291.806 460.284,290.92L460.284,290.884C460.284,289.963 459.189,289.608 457.972,289.27C456.519,288.865 454.904,288.367 454.904,286.683L454.904,286.649C454.904,285.069 456.231,284.027 458.062,284.027C459.046,284.027 460.122,284.327 461.02,284.805C461.199,284.911 461.361,285.107 461.361,285.372C461.361,285.693 461.093,285.956 460.751,285.956C460.625,285.956 460.519,285.92 460.446,285.885C459.656,285.443 458.814,285.177 458.024,285.177C456.929,285.177 456.231,285.746 456.231,286.509L456.231,286.542C456.231,287.412 457.379,287.748 458.615,288.118C460.051,288.544 461.593,289.094 461.593,290.743L461.593,290.78C461.593,292.513 460.14,293.525 458.294,293.525C457.073,293.525 455.729,293.082 454.724,292.373" style="fill:rgb(244,119,41);fill-rule:nonzero;"/>
            <path d="M466.851,281.315C466.851,280.871 467.212,280.588 467.657,280.588C468.124,280.588 468.482,280.871 468.482,281.315L468.482,281.544C468.482,281.971 468.124,282.271 467.657,282.271C467.212,282.271 466.851,281.971 466.851,281.544L466.851,281.315ZM466.977,284.787C466.977,284.415 467.282,284.097 467.657,284.097C468.055,284.097 468.36,284.398 468.36,284.787L468.36,292.745C468.36,293.135 468.072,293.435 467.676,293.435C467.282,293.435 466.977,293.135 466.977,292.745L466.977,284.787Z" style="fill:rgb(244,119,41);fill-rule:nonzero;"/>
            <path d="M473.563,290.689L473.563,290.655C473.563,288.723 475.177,287.694 477.526,287.694C478.71,287.694 479.553,287.853 480.379,288.084L480.379,287.763C480.379,286.118 479.357,285.267 477.616,285.267C476.684,285.267 475.894,285.479 475.214,285.782C475.122,285.815 475.033,285.834 474.961,285.834C474.64,285.834 474.351,285.568 474.351,285.248C474.351,284.965 474.548,284.752 474.73,284.681C475.643,284.291 476.575,284.062 477.761,284.062C479.068,284.062 480.073,284.399 480.756,285.071C481.384,285.692 481.705,286.577 481.705,287.747L481.705,292.765C481.705,293.155 481.42,293.434 481.041,293.434C480.65,293.434 480.379,293.155 480.379,292.798L480.379,291.964C479.732,292.798 478.657,293.542 477.024,293.542C475.304,293.542 473.563,292.568 473.563,290.689M480.398,289.98L480.398,289.095C479.715,288.9 478.8,288.703 477.67,288.703C475.93,288.703 474.961,289.449 474.961,290.602L474.961,290.635C474.961,291.788 476.039,292.462 477.294,292.462C478.999,292.462 480.398,291.432 480.398,289.98" style="fill:rgb(244,119,41);fill-rule:nonzero;"/>
            <path d="M208.497,222.202C208.497,219.185 210.911,216.797 213.964,216.797L215.17,216.797C217.514,216.797 219.149,217.992 220.141,219.605L233.347,240.872L246.625,219.536C247.762,217.71 249.323,216.797 251.524,216.797L252.73,216.797C255.783,216.797 258.198,219.185 258.198,222.202L258.198,261.229C258.198,264.248 255.783,266.633 252.73,266.633C249.749,266.633 247.335,264.179 247.335,261.229L247.335,236.732L237.749,251.33C236.613,253.015 235.194,254.069 233.207,254.069C231.216,254.069 229.797,253.015 228.662,251.33L219.219,236.942L219.219,261.369C219.219,264.317 216.803,266.633 213.821,266.633C210.841,266.633 208.497,264.317 208.497,261.369L208.497,222.202Z" style="fill:rgb(244,119,41);fill-rule:nonzero;"/>
            <path d="M277.871,241.786L277.871,241.645C277.871,227.677 288.521,216.236 303.786,216.236C311.243,216.236 316.281,218.202 320.4,221.219C321.536,222.063 322.531,223.607 322.531,225.5C322.531,228.449 320.117,230.764 317.136,230.764C315.645,230.764 314.65,230.204 313.867,229.713C310.817,227.467 307.622,226.202 303.717,226.202C295.339,226.202 289.302,233.085 289.302,241.506L289.302,241.645C289.302,250.069 295.197,257.089 303.717,257.089C308.332,257.089 311.382,255.684 314.508,253.227C315.359,252.525 316.497,252.034 317.773,252.034C320.543,252.034 322.887,254.281 322.887,257.016C322.887,258.701 322.035,260.036 321.042,260.878C316.567,264.739 311.313,267.055 303.361,267.055C288.737,267.055 277.871,255.893 277.871,241.786" style="fill:rgb(244,119,41);fill-rule:nonzero;"/>
            <path d="M378.857,261.499C378.857,264.327 376.542,266.615 373.68,266.615C370.821,266.615 368.505,264.327 368.505,261.499L368.505,261.026C365.985,264.395 362.51,266.885 357.134,266.885C348.619,266.885 340.514,260.288 340.514,248.236L340.514,248.102C340.514,236.048 348.48,229.451 357.134,229.451C362.648,229.451 366.052,231.941 368.505,234.835L368.505,221.775C368.505,218.946 370.821,216.659 373.68,216.659C376.542,216.659 378.857,218.946 378.857,221.775L378.857,261.499ZM350.867,248.102L350.867,248.236C350.867,254.227 354.952,258.199 359.789,258.199C364.624,258.199 368.641,254.227 368.641,248.236L368.641,248.102C368.641,242.109 364.624,238.136 359.789,238.136C354.952,238.136 350.867,242.041 350.867,248.102" style="fill:rgb(244,119,41);fill-rule:nonzero;"/>
            <path d="M412.233,267.021C401.269,267.021 393.165,259.413 393.165,248.372L393.165,248.236C393.165,237.933 400.589,229.451 411.211,229.451C423.403,229.451 428.784,239.348 428.784,246.821C428.784,249.786 426.672,251.737 423.948,251.737L403.448,251.737C404.472,256.382 407.739,258.807 412.369,258.807C415.231,258.807 417.613,257.93 419.725,256.382C420.473,255.844 421.156,255.574 422.246,255.574C424.56,255.574 426.263,257.324 426.263,259.614C426.263,260.96 425.65,261.97 424.902,262.644C421.701,265.338 417.546,267.021 412.233,267.021M418.908,245.339C418.294,240.761 415.57,237.665 411.211,237.665C406.92,237.665 404.129,240.696 403.31,245.339L418.908,245.339Z" style="fill:rgb(244,119,41);fill-rule:nonzero;"/>
            <path d="M443.976,221.775C443.976,218.947 446.291,216.659 449.153,216.659C452.012,216.659 454.327,218.947 454.327,221.775L454.327,261.5C454.327,264.328 452.012,266.616 449.153,266.616C446.291,266.616 443.976,264.328 443.976,261.5L443.976,221.775Z" style="fill:rgb(244,119,41);fill-rule:nonzero;"/>
            <path d="M470.742,221.507C470.742,218.543 473.263,216.727 476.532,216.727C479.801,216.727 482.32,218.543 482.32,221.507L482.32,221.64C482.32,224.603 479.801,226.488 476.532,226.488C473.263,226.488 470.742,224.603 470.742,221.64L470.742,221.507ZM471.356,234.836C471.356,232.011 473.672,229.72 476.532,229.72C479.391,229.72 481.707,232.011 481.707,234.836L481.707,261.501C481.707,264.329 479.391,266.616 476.532,266.616C473.672,266.616 471.356,264.329 471.356,261.501L471.356,234.836Z" style="fill:rgb(244,119,41);fill-rule:nonzero;"/>
            <path d="M343.309,57.45C339.08,57.45 335.651,60.94 335.651,65.246L335.651,121.642C335.651,125.949 339.08,129.438 343.309,129.438L348.952,129.438C353.182,129.438 356.608,125.949 356.608,121.642L356.608,65.246C356.608,60.94 353.182,57.45 348.952,57.45L343.309,57.45Z" style="fill:rgb(252,179,43);fill-rule:nonzero;"/>
            <path d="M301.208,129.439L306.414,129.439C310.763,129.439 314.289,125.954 314.289,121.654L314.289,46.321L314.296,46.321C314.371,37.691 321.463,30.718 330.209,30.718C334.322,30.718 338.071,32.261 340.896,34.79L340.943,34.833C343.913,37.478 348.348,37.478 351.318,34.835L351.364,34.79C354.19,32.261 357.937,30.718 362.052,30.718C370.798,30.718 377.892,37.691 377.965,46.321L377.972,46.321L377.972,121.654C377.972,125.954 381.498,129.439 385.847,129.439L391.053,129.439C395.402,129.439 398.929,125.954 398.929,121.654L398.929,41.953C398.929,30.723 390.5,17.645 380.078,13.168C369.151,8.474 358.403,9.296 349.8,13.663C347.482,14.837 344.779,14.837 342.463,13.663C333.858,9.296 323.111,8.474 312.182,13.168C301.763,17.645 293.333,30.723 293.333,41.953L293.333,121.654C293.333,125.954 296.859,129.439 301.208,129.439" style="fill:rgb(252,179,43);fill-rule:nonzero;"/>
            <path d="M481.613,76.425C479.879,75.747 476.616,79.637 474.32,85.116L462.109,114.181C460.031,119.137 457.39,122.825 456.24,122.377C455.089,121.926 455.848,117.503 457.925,112.547L470.136,83.481C472.432,78.004 472.886,73.015 471.153,72.338C469.421,71.663 466.155,75.554 463.86,81.028L463.86,81.031L451.652,110.097C449.572,115.053 446.931,118.74 445.78,118.289C444.63,117.843 445.388,113.418 447.467,108.462L459.676,79.395L459.676,79.394C461.971,73.918 462.426,68.929 460.695,68.253C458.962,67.576 455.695,71.467 453.401,76.943L441.191,106.009C439.114,110.965 436.473,114.653 435.321,114.205L435.32,114.205C434.169,113.754 434.93,109.331 437.007,104.375L449.215,75.309L449.218,75.309C451.512,69.832 451.968,64.843 450.234,64.168C448.504,63.491 445.237,67.382 442.942,72.856C436.541,84.951 432.383,92.899 429.07,100.077L424.862,110.119C421.506,118.128 421.957,126.539 425.361,132.958C406.694,158.506 377.019,173.735 345.41,173.766C312.384,173.795 281.412,157.058 262.985,129.401C268.233,120.198 268.965,106.723 263.942,93.521C256.339,73.546 238.441,61.777 223.966,67.237C209.489,72.696 203.916,93.314 211.52,113.291C218.361,131.264 233.536,142.586 247.056,140.697C269.145,173.492 306.056,193.599 345.41,193.554C383.602,193.512 419.421,174.723 441.719,143.641C451.715,144.247 462.073,137.496 466.697,126.462L470.906,116.42C473.698,109.043 476.48,100.558 480.591,87.575C480.591,87.573 480.594,87.57 480.594,87.569C482.889,82.09 483.347,77.103 481.613,76.425" style="fill:rgb(252,179,43);fill-rule:nonzero;"/>
        </g>
    </g>
</svg>
