<?xml version="1.0" encoding="UTF-8" standalone="no"?>
<!DOCTYPE svg PUBLIC "-//W3C//DTD SVG 1.1//EN" "http://www.w3.org/Graphics/SVG/1.1/DTD/svg11.dtd">
<svg width="100%" height="100%" viewBox="0 0 382 395" version="1.1" xmlns="http://www.w3.org/2000/svg" xmlns:xlink="http://www.w3.org/1999/xlink" xml:space="preserve" xmlns:serif="http://www.serif.com/" style="fill-rule:evenodd;clip-rule:evenodd;stroke-linejoin:round;stroke-miterlimit:2;">
    <g>
        <path d="M0.48,381.809C0.48,381.291 0.903,380.85 1.425,380.85C1.973,380.85 2.398,381.267 2.398,381.809L2.398,383.114C3.246,381.859 4.392,380.703 6.559,380.703C8.656,380.703 9.998,381.809 10.697,383.239C11.623,381.837 12.991,380.703 15.237,380.703C18.2,380.703 20.021,382.671 20.021,385.824L20.021,392.868C20.021,393.409 19.596,393.826 19.07,393.826C18.526,393.826 18.103,393.409 18.103,392.868L18.103,386.267C18.103,383.805 16.855,382.425 14.762,382.425C12.818,382.425 11.223,383.856 11.223,386.365L11.223,392.868C11.223,393.409 10.8,393.826 10.25,393.826C9.726,393.826 9.301,393.409 9.301,392.868L9.301,386.22C9.301,383.831 8.034,382.425 5.987,382.425C3.941,382.425 2.398,384.101 2.398,386.438L2.398,392.868C2.398,393.409 1.997,393.826 1.451,393.826C0.903,393.826 0.48,393.409 0.48,392.868L0.48,381.809Z" style="fill:rgb(244,119,41);fill-rule:nonzero;"/>
        <path d="M27.129,387.4L27.129,387.354C27.129,383.756 29.969,380.701 33.731,380.701C35.875,380.701 37.323,381.513 38.469,382.548C38.618,382.673 38.769,382.919 38.769,383.215C38.769,383.73 38.344,384.127 37.847,384.127C37.595,384.127 37.373,384.026 37.222,383.906C36.3,383.068 35.254,382.377 33.709,382.377C31.091,382.377 29.097,384.568 29.097,387.304L29.097,387.354C29.097,390.11 31.143,392.303 33.834,392.303C35.305,392.303 36.475,391.636 37.424,390.748C37.547,390.627 37.722,390.502 37.968,390.502C38.443,390.502 38.842,390.923 38.842,391.362C38.842,391.586 38.743,391.808 38.594,391.955C37.373,393.163 35.903,394.001 33.731,394.001C29.969,394.001 27.129,390.97 27.129,387.4" style="fill:rgb(244,119,41);fill-rule:nonzero;"/>
        <path d="M57.913,392.866C57.913,393.408 57.49,393.825 56.964,393.825C56.416,393.825 55.995,393.408 55.995,392.866L55.995,391.144C54.945,392.671 53.429,393.974 51.06,393.974C47.968,393.974 44.904,391.561 44.904,387.375L44.904,387.327C44.904,383.163 47.968,380.7 51.06,380.7C53.453,380.7 54.996,381.983 55.995,383.409L55.995,376.562C55.995,376.024 56.392,375.603 56.942,375.603C57.49,375.603 57.913,376.024 57.913,376.562L57.913,392.866ZM46.872,387.302L46.872,387.353C46.872,390.356 48.991,392.274 51.408,392.274C53.801,392.274 56.069,390.282 56.069,387.353L56.069,387.302C56.069,384.372 53.801,382.404 51.408,382.404C48.913,382.404 46.872,384.223 46.872,387.302" style="fill:rgb(244,119,41);fill-rule:nonzero;"/>
        <path d="M71.575,394C68.036,394 65.145,391.315 65.145,387.375L65.145,387.325C65.145,383.657 67.762,380.7 71.325,380.7C75.138,380.7 77.308,383.779 77.308,387.153C77.308,387.671 76.885,388.038 76.409,388.038L67.089,388.038C67.363,390.799 69.335,392.35 71.625,392.35C73.221,392.35 74.391,391.734 75.34,390.874C75.487,390.749 75.662,390.652 75.888,390.652C76.359,390.652 76.736,391.021 76.736,391.462C76.736,391.686 76.635,391.907 76.438,392.078C75.215,393.237 73.769,394 71.575,394M75.39,386.636C75.189,384.323 73.843,382.301 71.277,382.301C69.035,382.301 67.339,384.148 67.089,386.636L75.39,386.636Z" style="fill:rgb(244,119,41);fill-rule:nonzero;"/>
        <path d="M84.615,376.565C84.615,376.047 85.038,375.606 85.56,375.606C86.11,375.606 86.533,376.047 86.533,376.565L86.533,392.868C86.533,393.41 86.132,393.827 85.588,393.827C85.038,393.827 84.615,393.41 84.615,392.868L84.615,376.565Z" style="fill:rgb(244,119,41);fill-rule:nonzero;"/>
        <path d="M94.736,376.985C94.736,376.368 95.233,375.975 95.86,375.975C96.504,375.975 97.002,376.368 97.002,376.985L97.002,377.303C97.002,377.897 96.504,378.314 95.86,378.314C95.233,378.314 94.736,377.897 94.736,377.303L94.736,376.985ZM94.911,381.809C94.911,381.293 95.334,380.85 95.86,380.85C96.404,380.85 96.829,381.269 96.829,381.809L96.829,392.867C96.829,393.409 96.432,393.826 95.882,393.826C95.334,393.826 94.911,393.409 94.911,392.867L94.911,381.809Z" style="fill:rgb(244,119,41);fill-rule:nonzero;"/>
        <path d="M104.234,387.4L104.234,387.354C104.234,383.756 107.074,380.701 110.839,380.701C112.982,380.701 114.428,381.513 115.572,382.548C115.723,382.673 115.874,382.919 115.874,383.215C115.874,383.73 115.451,384.127 114.95,384.127C114.7,384.127 114.474,384.026 114.327,383.906C113.405,383.068 112.359,382.377 110.814,382.377C108.198,382.377 106.202,384.568 106.202,387.304L106.202,387.354C106.202,390.11 108.248,392.303 110.935,392.303C112.41,392.303 113.58,391.636 114.525,390.748C114.654,390.627 114.825,390.502 115.075,390.502C115.548,390.502 115.949,390.923 115.949,391.362C115.949,391.586 115.848,391.808 115.695,391.955C114.474,393.163 113.008,394.001 110.839,394.001C107.074,394.001 104.234,390.97 104.234,387.4" style="fill:rgb(244,119,41);fill-rule:nonzero;"/>
        <path d="M122.032,390.01L122.032,389.963C122.032,387.278 124.276,385.848 127.539,385.848C129.185,385.848 130.355,386.07 131.503,386.39L131.503,385.945C131.503,383.659 130.083,382.476 127.664,382.476C126.369,382.476 125.271,382.77 124.326,383.191C124.203,383.238 124.074,383.264 123.976,383.264C123.529,383.264 123.128,382.895 123.128,382.45C123.128,382.057 123.406,381.761 123.653,381.662C124.922,381.121 126.222,380.802 127.865,380.802C129.682,380.802 131.078,381.27 132.027,382.204C132.899,383.066 133.35,384.297 133.35,385.923L133.35,392.894C133.35,393.436 132.949,393.825 132.426,393.825C131.88,393.825 131.503,393.436 131.503,392.94L131.503,391.782C130.609,392.94 129.11,393.974 126.844,393.974C124.451,393.974 122.032,392.62 122.032,390.01M131.529,389.025L131.529,387.796C130.581,387.524 129.31,387.25 127.738,387.25C125.323,387.25 123.976,388.287 123.976,389.889L123.976,389.935C123.976,391.537 125.474,392.473 127.217,392.473C129.586,392.473 131.529,391.043 131.529,389.025" style="fill:rgb(244,119,41);fill-rule:nonzero;"/>
        <path d="M153.119,382.647L152.071,382.647C151.598,382.647 151.248,382.276 151.248,381.809C151.248,381.366 151.622,380.999 152.071,380.999L153.119,380.999L153.119,379.887C153.119,378.435 153.52,377.327 154.239,376.614C154.887,375.976 155.838,375.629 157.009,375.629C157.631,375.629 158.102,375.68 158.525,375.776C158.9,375.851 159.224,376.171 159.224,376.592C159.224,377.081 158.801,377.452 158.304,377.402C157.981,377.355 157.631,377.281 157.256,377.281C155.76,377.281 155.012,378.165 155.012,379.99L155.012,381.021L158.354,381.021C158.825,381.021 159.198,381.366 159.198,381.835C159.198,382.276 158.825,382.647 158.354,382.647L155.041,382.647L155.041,392.868C155.041,393.383 154.64,393.826 154.09,393.826C153.542,393.826 153.119,393.383 153.119,392.868L153.119,382.647Z" style="fill:rgb(244,119,41);fill-rule:nonzero;"/>
        <path d="M164.237,387.4L164.237,387.354C164.237,383.756 167.077,380.701 170.965,380.701C174.828,380.701 177.67,383.706 177.67,387.304L177.67,387.354C177.67,390.946 174.804,394.001 170.914,394.001C167.053,394.001 164.237,390.998 164.237,387.4M175.698,387.4L175.698,387.354C175.698,384.619 173.634,382.377 170.914,382.377C168.123,382.377 166.205,384.619 166.205,387.304L166.205,387.354C166.205,390.085 168.252,392.303 170.965,392.303C173.755,392.303 175.698,390.085 175.698,387.4" style="fill:rgb(244,119,41);fill-rule:nonzero;"/>
        <path d="M184.081,387.4L184.081,387.354C184.081,383.756 186.921,380.701 190.811,380.701C194.672,380.701 197.514,383.706 197.514,387.304L197.514,387.354C197.514,390.946 194.65,394.001 190.758,394.001C186.897,394.001 184.081,390.998 184.081,387.4M195.542,387.4L195.542,387.354C195.542,384.619 193.478,382.377 190.758,382.377C187.967,382.377 186.049,384.619 186.049,387.304L186.049,387.354C186.049,390.085 188.095,392.303 190.811,392.303C193.603,392.303 195.542,390.085 195.542,387.4" style="fill:rgb(244,119,41);fill-rule:nonzero;"/>
        <path d="M216.985,392.866C216.985,393.408 216.562,393.825 216.038,393.825C215.486,393.825 215.063,393.408 215.063,392.866L215.063,391.144C214.02,392.671 212.499,393.974 210.132,393.974C207.04,393.974 203.974,391.561 203.974,387.375L203.974,387.327C203.974,383.163 207.04,380.7 210.132,380.7C212.523,380.7 214.068,381.983 215.063,383.409L215.063,376.562C215.063,376.024 215.464,375.603 216.012,375.603C216.562,375.603 216.985,376.024 216.985,376.562L216.985,392.866ZM205.942,387.302L205.942,387.353C205.942,390.356 208.061,392.274 210.48,392.274C212.873,392.274 215.14,390.282 215.14,387.353L215.14,387.302C215.14,384.372 212.873,382.404 210.48,382.404C207.989,382.404 205.942,384.223 205.942,387.302" style="fill:rgb(244,119,41);fill-rule:nonzero;"/>
        <path d="M236.229,376.985C236.229,376.368 236.73,375.975 237.353,375.975C237.999,375.975 238.497,376.368 238.497,376.985L238.497,377.303C238.497,377.897 237.999,378.314 237.353,378.314C236.73,378.314 236.229,377.897 236.229,377.303L236.229,376.985ZM236.404,381.809C236.404,381.293 236.827,380.85 237.353,380.85C237.901,380.85 238.326,381.269 238.326,381.809L238.326,392.867C238.326,393.409 237.925,393.826 237.377,393.826C236.827,393.826 236.404,393.409 236.404,392.867L236.404,381.809Z" style="fill:rgb(244,119,41);fill-rule:nonzero;"/>
        <path d="M246.525,381.809C246.525,381.291 246.948,380.85 247.474,380.85C248.022,380.85 248.443,381.267 248.443,381.809L248.443,383.189C249.291,381.809 250.639,380.703 252.858,380.703C255.973,380.703 257.793,382.772 257.793,385.799L257.793,392.868C257.793,393.409 257.368,393.826 256.845,393.826C256.297,393.826 255.872,393.409 255.872,392.868L255.872,386.267C255.872,383.906 254.577,382.425 252.309,382.425C250.089,382.425 248.443,384.027 248.443,386.416L248.443,392.868C248.443,393.409 248.046,393.826 247.496,393.826C246.948,393.826 246.525,393.409 246.525,392.868L246.525,381.809Z" style="fill:rgb(244,119,41);fill-rule:nonzero;"/>
        <path d="M277.885,392.866C277.885,393.408 277.462,393.825 276.938,393.825C276.386,393.825 275.963,393.408 275.963,392.866L275.963,391.144C274.92,392.671 273.399,393.974 271.032,393.974C267.94,393.974 264.875,391.561 264.875,387.375L264.875,387.327C264.875,383.163 267.94,380.7 271.032,380.7C273.423,380.7 274.968,381.983 275.963,383.409L275.963,376.562C275.963,376.024 276.364,375.603 276.912,375.603C277.462,375.603 277.885,376.024 277.885,376.562L277.885,392.866ZM266.843,387.302L266.843,387.353C266.843,390.356 268.962,392.274 271.381,392.274C273.774,392.274 276.04,390.282 276.04,387.353L276.04,387.302C276.04,384.372 273.774,382.404 271.381,382.404C268.889,382.404 266.843,384.223 266.843,387.302" style="fill:rgb(244,119,41);fill-rule:nonzero;"/>
        <path d="M285.116,387.4L285.116,387.354C285.116,383.756 287.956,380.701 291.844,380.701C295.711,380.701 298.549,383.706 298.549,387.304L298.549,387.354C298.549,390.946 295.683,394.001 291.797,394.001C287.932,394.001 285.116,390.998 285.116,387.4M296.581,387.4L296.581,387.354C296.581,384.619 294.513,382.377 291.797,382.377C289.006,382.377 287.084,384.619 287.084,387.304L287.084,387.354C287.084,390.085 289.13,392.303 291.844,392.303C294.638,392.303 296.581,390.085 296.581,387.4" style="fill:rgb(244,119,41);fill-rule:nonzero;"/>
        <path d="M305.756,381.809C305.756,381.291 306.179,380.85 306.704,380.85C307.252,380.85 307.673,381.267 307.673,381.809L307.673,383.189C308.521,381.809 309.871,380.703 312.089,380.703C315.203,380.703 317.024,382.772 317.024,385.799L317.024,392.868C317.024,393.409 316.599,393.826 316.075,393.826C315.527,393.826 315.102,393.409 315.102,392.868L315.102,386.267C315.102,383.906 313.807,382.425 311.539,382.425C309.319,382.425 307.673,384.027 307.673,386.416L307.673,392.868C307.673,393.409 307.276,393.826 306.729,393.826C306.179,393.826 305.756,393.409 305.756,392.868L305.756,381.809Z" style="fill:rgb(244,119,41);fill-rule:nonzero;"/>
        <path d="M330.484,394C326.945,394 324.054,391.315 324.054,387.375L324.054,387.325C324.054,383.657 326.673,380.7 330.234,380.7C334.047,380.7 336.217,383.779 336.217,387.153C336.217,387.671 335.794,388.038 335.322,388.038L326,388.038C326.272,390.799 328.244,392.35 330.534,392.35C332.13,392.35 333.304,391.734 334.249,390.874C334.398,390.749 334.571,390.652 334.799,390.652C335.268,390.652 335.647,391.021 335.647,391.462C335.647,391.686 335.544,391.907 335.347,392.078C334.124,393.237 332.678,394 330.484,394M334.299,386.636C334.102,384.323 332.752,382.301 330.186,382.301C327.944,382.301 326.248,384.148 326,386.636L334.299,386.636Z" style="fill:rgb(244,119,41);fill-rule:nonzero;"/>
        <path d="M342.653,392.35C342.477,392.229 342.302,391.979 342.302,391.661C342.302,391.216 342.677,390.845 343.15,390.845C343.325,390.845 343.501,390.895 343.623,390.994C344.943,391.882 346.317,392.35 347.708,392.35C349.257,392.35 350.377,391.562 350.377,390.331L350.377,390.281C350.377,389.002 348.857,388.508 347.165,388.039C345.146,387.475 342.902,386.784 342.902,384.444L342.902,384.397C342.902,382.202 344.745,380.753 347.289,380.753C348.657,380.753 350.152,381.17 351.401,381.835C351.648,381.982 351.874,382.254 351.874,382.623C351.874,383.068 351.501,383.434 351.026,383.434C350.851,383.434 350.704,383.384 350.603,383.336C349.505,382.721 348.335,382.351 347.237,382.351C345.716,382.351 344.745,383.142 344.745,384.202L344.745,384.248C344.745,385.457 346.341,385.924 348.059,386.438C350.053,387.03 352.196,387.793 352.196,390.086L352.196,390.136C352.196,392.545 350.178,393.951 347.612,393.951C345.916,393.951 344.048,393.335 342.653,392.35" style="fill:rgb(244,119,41);fill-rule:nonzero;"/>
        <path d="M359.503,376.985C359.503,376.368 360.004,375.975 360.623,375.975C361.271,375.975 361.769,376.368 361.769,376.985L361.769,377.303C361.769,377.897 361.271,378.314 360.623,378.314C360.004,378.314 359.503,377.897 359.503,377.303L359.503,376.985ZM359.678,381.809C359.678,381.293 360.101,380.85 360.623,380.85C361.174,380.85 361.599,381.269 361.599,381.809L361.599,392.867C361.599,393.409 361.199,393.826 360.649,393.826C360.101,393.826 359.678,393.409 359.678,392.867L359.678,381.809Z" style="fill:rgb(244,119,41);fill-rule:nonzero;"/>
        <path d="M368.828,390.01L368.828,389.963C368.828,387.278 371.072,385.848 374.335,385.848C375.98,385.848 377.151,386.07 378.299,386.39L378.299,385.945C378.299,383.659 376.879,382.476 374.46,382.476C373.164,382.476 372.067,382.77 371.122,383.191C370.995,383.238 370.87,383.264 370.771,383.264C370.324,383.264 369.923,382.895 369.923,382.45C369.923,382.057 370.197,381.761 370.449,381.662C371.718,381.121 373.013,380.802 374.661,380.802C376.478,380.802 377.874,381.27 378.823,382.204C379.695,383.066 380.142,384.297 380.142,385.923L380.142,392.894C380.142,393.436 379.745,393.825 379.219,393.825C378.676,393.825 378.299,393.436 378.299,392.94L378.299,391.782C377.4,392.94 375.906,393.974 373.638,393.974C371.247,393.974 368.828,392.62 368.828,390.01M378.325,389.025L378.325,387.796C377.376,387.524 376.105,387.25 374.534,387.25C372.117,387.25 370.771,388.287 370.771,389.889L370.771,389.935C370.771,391.537 372.268,392.473 374.012,392.473C376.381,392.473 378.325,391.043 378.325,389.025" style="fill:rgb(244,119,41);fill-rule:nonzero;"/>
        <path d="M0.526,294.849C0.526,290.657 3.879,287.339 8.122,287.339L9.797,287.339C13.055,287.339 15.327,288.999 16.705,291.241L35.055,320.791L53.504,291.144C55.083,288.608 57.252,287.339 60.31,287.339L61.986,287.339C66.228,287.339 69.584,290.657 69.584,294.849L69.584,349.076C69.584,353.272 66.228,356.585 61.986,356.585C57.845,356.585 54.491,353.175 54.491,349.076L54.491,315.038L41.17,335.322C39.593,337.663 37.621,339.127 34.859,339.127C32.094,339.127 30.122,337.663 28.545,335.322L15.423,315.33L15.423,349.271C15.423,353.366 12.068,356.585 7.924,356.585C3.783,356.585 0.526,353.366 0.526,349.271L0.526,294.849Z" style="fill:rgb(244,119,41);fill-rule:nonzero;"/>
        <path d="M96.92,322.06L96.92,321.865C96.92,302.457 111.717,286.56 132.928,286.56C143.289,286.56 150.289,289.292 156.012,293.483C157.591,294.656 158.973,296.801 158.973,299.432C158.973,303.529 155.619,306.746 151.477,306.746C149.405,306.746 148.023,305.968 146.935,305.285C142.697,302.165 138.258,300.407 132.831,300.407C121.19,300.407 112.803,309.97 112.803,321.672L112.803,321.865C112.803,333.57 120.993,343.323 132.831,343.323C139.245,343.323 143.483,341.371 147.825,337.957C149.008,336.982 150.589,336.299 152.362,336.299C156.211,336.299 159.468,339.422 159.468,343.223C159.468,345.563 158.284,347.418 156.904,348.589C150.686,353.953 143.386,357.172 132.338,357.172C112.017,357.172 96.92,341.662 96.92,322.06" style="fill:rgb(244,119,41);fill-rule:nonzero;"/>
        <path d="M237.237,349.451C237.237,353.381 234.02,356.56 230.044,356.56C226.072,356.56 222.853,353.381 222.853,349.451L222.853,348.795C219.352,353.476 214.524,356.934 207.053,356.934C195.223,356.934 183.961,347.769 183.961,331.022L183.961,330.837C183.961,314.088 195.029,304.921 207.053,304.921C214.715,304.921 219.445,308.382 222.853,312.402L222.853,294.255C222.853,290.325 226.072,287.147 230.044,287.147C234.02,287.147 237.237,290.325 237.237,294.255L237.237,349.451ZM198.345,330.837L198.345,331.022C198.345,339.347 204.021,344.867 210.743,344.867C217.46,344.867 223.042,339.347 223.042,331.022L223.042,330.837C223.042,322.51 217.46,316.989 210.743,316.989C204.021,316.989 198.345,322.415 198.345,330.837" style="fill:rgb(244,119,41);fill-rule:nonzero;"/>
        <path d="M283.612,357.124C268.378,357.124 257.118,346.553 257.118,331.212L257.118,331.023C257.118,316.707 267.433,304.921 282.192,304.921C299.132,304.921 306.609,318.673 306.609,329.057C306.609,333.176 303.675,335.887 299.89,335.887L271.405,335.887C272.827,342.341 277.368,345.711 283.801,345.711C287.778,345.711 291.087,344.492 294.022,342.341C295.061,341.594 296.01,341.219 297.525,341.219C300.74,341.219 303.106,343.65 303.106,346.833C303.106,348.702 302.254,350.106 301.215,351.043C296.767,354.785 290.994,357.124 283.612,357.124M292.886,326.998C292.034,320.637 288.249,316.334 282.192,316.334C276.23,316.334 272.352,320.546 271.214,326.998L292.886,326.998Z" style="fill:rgb(244,119,41);fill-rule:nonzero;"/>
        <path d="M327.718,294.256C327.718,290.327 330.935,287.148 334.911,287.148C338.884,287.148 342.1,290.327 342.1,294.256L342.1,349.452C342.1,353.382 338.884,356.561 334.911,356.561C330.935,356.561 327.718,353.382 327.718,349.452L327.718,294.256Z" style="fill:rgb(244,119,41);fill-rule:nonzero;"/>
        <path d="M364.908,293.883C364.908,289.766 368.411,287.242 372.953,287.242C377.496,287.242 380.996,289.766 380.996,293.883L380.996,294.068C380.996,298.185 377.496,300.804 372.953,300.804C368.411,300.804 364.908,298.185 364.908,294.068L364.908,293.883ZM365.762,312.404C365.762,308.478 368.979,305.296 372.953,305.296C376.926,305.296 380.144,308.478 380.144,312.404L380.144,349.453C380.144,353.383 376.926,356.562 372.953,356.562C368.979,356.562 365.762,353.383 365.762,349.453L365.762,312.404Z" style="fill:rgb(244,119,41);fill-rule:nonzero;"/>
        <path d="M187.843,65.93C181.967,65.93 177.204,70.78 177.204,76.763L177.204,155.123C177.204,161.108 181.967,165.956 187.843,165.956L195.685,165.956C201.563,165.956 206.322,161.108 206.322,155.123L206.322,76.763C206.322,70.78 201.563,65.93 195.685,65.93L187.843,65.93Z" style="fill:rgb(252,178,43);fill-rule:nonzero;"/>
        <path d="M129.346,165.958L136.579,165.958C142.622,165.958 147.521,161.115 147.521,155.141L147.521,50.468L147.531,50.468C147.636,38.476 157.49,28.788 169.642,28.788C175.356,28.788 180.565,30.931 184.491,34.446L184.556,34.504C188.683,38.18 194.845,38.18 198.972,34.508L199.037,34.446C202.962,30.931 208.169,28.788 213.886,28.788C226.038,28.788 235.896,38.476 235.997,50.468L236.007,50.468L236.007,155.141C236.007,161.115 240.906,165.958 246.949,165.958L254.182,165.958C260.225,165.958 265.126,161.115 265.126,155.141L265.126,44.398C265.126,28.794 253.415,10.623 238.934,4.402C223.75,-2.12 208.816,-0.978 196.863,5.089C193.642,6.721 189.886,6.721 186.669,5.089C174.712,-0.978 159.78,-2.12 144.594,4.402C130.117,10.623 118.404,28.794 118.404,44.398L118.404,155.141C118.404,161.115 123.303,165.958 129.346,165.958" style="fill:rgb(252,178,43);fill-rule:nonzero;"/>
        <path d="M380.013,92.296C377.604,91.353 373.07,96.759 369.879,104.372L352.913,144.756C350.026,151.643 346.356,156.768 344.759,156.145C343.16,155.519 344.213,149.373 347.1,142.486L364.066,102.099C367.257,94.489 367.887,87.558 365.48,86.617C363.073,85.679 358.535,91.085 355.346,98.691L355.346,98.695L338.384,139.082C335.493,145.969 331.823,151.091 330.224,150.465C328.627,149.844 329.68,143.697 332.569,136.81L349.533,96.423L349.533,96.421C352.722,88.813 353.354,81.88 350.949,80.941C348.54,80 344.002,85.407 340.813,93.015L323.849,133.402C320.962,140.289 317.292,145.413 315.693,144.791L315.691,144.791C314.091,144.164 315.149,138.018 318.035,131.132L334.998,90.745L335.002,90.745C338.188,83.135 338.823,76.203 336.414,75.265C334.009,74.324 329.471,79.731 326.282,87.337C317.387,104.142 311.61,115.186 307.007,125.159L301.159,139.112C296.496,150.241 297.123,161.928 301.852,170.848C275.916,206.346 234.683,227.506 190.763,227.548C144.874,227.589 101.84,204.333 76.236,165.905C83.528,153.118 84.545,134.395 77.566,116.05C67,88.295 42.132,71.943 22.019,79.529C1.904,87.115 -5.839,115.762 4.726,143.52C14.232,168.493 35.317,184.225 54.103,181.6C84.795,227.168 136.081,255.106 190.763,255.044C243.83,254.985 293.6,228.878 324.582,185.691C338.47,186.533 352.863,177.152 359.288,161.822L365.136,147.868C369.015,137.618 372.881,125.828 378.593,107.788C378.593,107.786 378.597,107.782 378.597,107.78C381.786,100.168 382.423,93.238 380.013,92.296" style="fill:rgb(252,178,43);fill-rule:nonzero;"/>
    </g>
</svg>
