<?xml version="1.0" encoding="UTF-8" standalone="no"?>
<!DOCTYPE svg PUBLIC "-//W3C//DTD SVG 1.1//EN" "http://www.w3.org/Graphics/SVG/1.1/DTD/svg11.dtd">
<svg width="100%" height="100%" viewBox="0 0 237 245" version="1.1" xmlns="http://www.w3.org/2000/svg" xmlns:xlink="http://www.w3.org/1999/xlink" xml:space="preserve" xmlns:serif="http://www.serif.com/" style="fill-rule:evenodd;clip-rule:evenodd;stroke-linejoin:round;stroke-miterlimit:2;">
    <g>
        <path d="M0.297,236.486C0.297,236.165 0.559,235.892 0.883,235.892C1.222,235.892 1.485,236.15 1.485,236.486L1.485,237.294C2.01,236.517 2.72,235.801 4.063,235.801C5.362,235.801 6.193,236.486 6.625,237.372C7.199,236.503 8.046,235.801 9.438,235.801C11.273,235.801 12.401,237.02 12.401,238.972L12.401,243.335C12.401,243.671 12.137,243.929 11.812,243.929C11.475,243.929 11.213,243.671 11.213,243.335L11.213,239.247C11.213,237.722 10.439,236.868 9.143,236.868C7.939,236.868 6.951,237.753 6.951,239.308L6.951,243.335C6.951,243.671 6.689,243.929 6.348,243.929C6.024,243.929 5.761,243.671 5.761,243.335L5.761,239.218C5.761,237.739 4.976,236.868 3.708,236.868C2.441,236.868 1.485,237.906 1.485,239.353L1.485,243.335C1.485,243.671 1.237,243.929 0.899,243.929C0.559,243.929 0.297,243.671 0.297,243.335L0.297,236.486Z" style="fill:rgb(252,178,43);fill-rule:nonzero;"/>
        <path d="M16.803,239.949L16.803,239.92C16.803,237.692 18.562,235.799 20.893,235.799C22.22,235.799 23.117,236.302 23.827,236.944C23.919,237.021 24.013,237.173 24.013,237.357C24.013,237.676 23.75,237.922 23.442,237.922C23.286,237.922 23.148,237.859 23.055,237.784C22.483,237.265 21.836,236.837 20.879,236.837C19.257,236.837 18.022,238.195 18.022,239.889L18.022,239.92C18.022,241.627 19.289,242.986 20.956,242.986C21.867,242.986 22.592,242.573 23.18,242.023C23.256,241.948 23.364,241.87 23.516,241.87C23.811,241.87 24.058,242.131 24.058,242.403C24.058,242.542 23.997,242.679 23.904,242.77C23.148,243.519 22.238,244.038 20.893,244.038C18.562,244.038 16.803,242.16 16.803,239.949" style="fill:rgb(252,178,43);fill-rule:nonzero;"/>
        <path d="M35.87,243.334C35.87,243.67 35.608,243.928 35.282,243.928C34.943,243.928 34.682,243.67 34.682,243.334L34.682,242.268C34.032,243.213 33.093,244.021 31.626,244.021C29.711,244.021 27.813,242.526 27.813,239.933L27.813,239.903C27.813,237.325 29.711,235.799 31.626,235.799C33.108,235.799 34.063,236.593 34.682,237.477L34.682,233.236C34.682,232.903 34.928,232.642 35.269,232.642C35.608,232.642 35.87,232.903 35.87,233.236L35.87,243.334ZM29.032,239.888L29.032,239.92C29.032,241.78 30.344,242.968 31.841,242.968C33.324,242.968 34.728,241.734 34.728,239.92L34.728,239.888C34.728,238.073 33.324,236.854 31.841,236.854C30.296,236.854 29.032,237.981 29.032,239.888" style="fill:rgb(252,178,43);fill-rule:nonzero;"/>
        <path d="M44.332,244.037C42.14,244.037 40.35,242.374 40.35,239.933L40.35,239.902C40.35,237.63 41.971,235.799 44.178,235.799C46.539,235.799 47.883,237.706 47.883,239.796C47.883,240.117 47.621,240.344 47.327,240.344L41.554,240.344C41.724,242.054 42.945,243.015 44.363,243.015C45.352,243.015 46.076,242.633 46.664,242.1C46.755,242.023 46.864,241.963 47.003,241.963C47.295,241.963 47.529,242.192 47.529,242.465C47.529,242.603 47.466,242.741 47.344,242.847C46.587,243.564 45.691,244.037 44.332,244.037M46.695,239.475C46.571,238.043 45.737,236.791 44.148,236.791C42.759,236.791 41.709,237.935 41.554,239.475L46.695,239.475Z" style="fill:rgb(252,178,43);fill-rule:nonzero;"/>
        <path d="M52.409,233.238C52.409,232.917 52.671,232.644 52.994,232.644C53.335,232.644 53.597,232.917 53.597,233.238L53.597,243.336C53.597,243.671 53.349,243.93 53.012,243.93C52.671,243.93 52.409,243.671 52.409,243.336L52.409,233.238Z" style="fill:rgb(252,178,43);fill-rule:nonzero;"/>
        <path d="M58.678,233.498C58.678,233.116 58.986,232.873 59.374,232.873C59.773,232.873 60.081,233.116 60.081,233.498L60.081,233.695C60.081,234.063 59.773,234.321 59.374,234.321C58.986,234.321 58.678,234.063 58.678,233.695L58.678,233.498ZM58.786,236.486C58.786,236.166 59.048,235.892 59.374,235.892C59.711,235.892 59.974,236.151 59.974,236.486L59.974,243.335C59.974,243.671 59.728,243.929 59.388,243.929C59.048,243.929 58.786,243.671 58.786,243.335L58.786,236.486Z" style="fill:rgb(252,178,43);fill-rule:nonzero;"/>
        <path d="M64.561,239.949L64.561,239.92C64.561,237.692 66.32,235.799 68.652,235.799C69.979,235.799 70.875,236.302 71.583,236.944C71.677,237.021 71.771,237.173 71.771,237.357C71.771,237.676 71.509,237.922 71.198,237.922C71.043,237.922 70.903,237.859 70.812,237.784C70.241,237.265 69.593,236.837 68.637,236.837C67.016,236.837 65.779,238.195 65.779,239.889L65.779,239.92C65.779,241.627 67.047,242.986 68.711,242.986C69.625,242.986 70.35,242.573 70.935,242.023C71.015,241.948 71.121,241.87 71.275,241.87C71.568,241.87 71.817,242.131 71.817,242.403C71.817,242.542 71.754,242.679 71.66,242.77C70.903,243.519 69.995,244.038 68.652,244.038C66.32,244.038 64.561,242.16 64.561,239.949" style="fill:rgb(252,178,43);fill-rule:nonzero;"/>
        <path d="M75.584,241.565L75.584,241.537C75.584,239.873 76.974,238.988 78.995,238.988C80.015,238.988 80.74,239.125 81.451,239.323L81.451,239.048C81.451,237.631 80.571,236.899 79.073,236.899C78.271,236.899 77.591,237.081 77.006,237.342C76.929,237.371 76.85,237.387 76.788,237.387C76.511,237.387 76.263,237.159 76.263,236.883C76.263,236.64 76.435,236.456 76.589,236.395C77.375,236.059 78.18,235.862 79.198,235.862C80.323,235.862 81.188,236.152 81.775,236.731C82.315,237.265 82.595,238.027 82.595,239.034L82.595,243.352C82.595,243.687 82.347,243.928 82.022,243.928C81.684,243.928 81.451,243.687 81.451,243.381L81.451,242.663C80.897,243.381 79.969,244.021 78.565,244.021C77.083,244.021 75.584,243.182 75.584,241.565M81.467,240.955L81.467,240.194C80.879,240.026 80.092,239.856 79.119,239.856C77.623,239.856 76.788,240.499 76.788,241.49L76.788,241.519C76.788,242.511 77.717,243.091 78.796,243.091C80.263,243.091 81.467,242.205 81.467,240.955" style="fill:rgb(252,178,43);fill-rule:nonzero;"/>
        <path d="M94.839,237.005L94.19,237.005C93.897,237.005 93.68,236.775 93.68,236.486C93.68,236.211 93.912,235.984 94.19,235.984L94.839,235.984L94.839,235.296C94.839,234.396 95.087,233.71 95.533,233.268C95.935,232.873 96.523,232.658 97.248,232.658C97.634,232.658 97.926,232.689 98.188,232.749C98.42,232.795 98.621,232.994 98.621,233.255C98.621,233.558 98.359,233.787 98.051,233.756C97.851,233.727 97.634,233.681 97.402,233.681C96.475,233.681 96.012,234.229 96.012,235.359L96.012,235.998L98.082,235.998C98.374,235.998 98.605,236.211 98.605,236.502C98.605,236.775 98.374,237.005 98.082,237.005L96.029,237.005L96.029,243.335C96.029,243.655 95.781,243.929 95.441,243.929C95.101,243.929 94.839,243.655 94.839,243.335L94.839,237.005Z" style="fill:rgb(252,178,43);fill-rule:nonzero;"/>
        <path d="M101.726,239.949L101.726,239.92C101.726,237.692 103.485,235.799 105.893,235.799C108.286,235.799 110.046,237.661 110.046,239.889L110.046,239.92C110.046,242.145 108.271,244.038 105.861,244.038C103.47,244.038 101.726,242.177 101.726,239.949M108.825,239.949L108.825,239.92C108.825,238.226 107.546,236.837 105.861,236.837C104.132,236.837 102.945,238.226 102.945,239.889L102.945,239.92C102.945,241.612 104.212,242.986 105.893,242.986C107.621,242.986 108.825,241.612 108.825,239.949" style="fill:rgb(252,178,43);fill-rule:nonzero;"/>
        <path d="M114.017,239.949L114.017,239.92C114.017,237.692 115.776,235.799 118.185,235.799C120.577,235.799 122.337,237.661 122.337,239.889L122.337,239.92C122.337,242.145 120.563,244.038 118.152,244.038C115.761,244.038 114.017,242.177 114.017,239.949M121.116,239.949L121.116,239.92C121.116,238.226 119.837,236.837 118.152,236.837C116.423,236.837 115.236,238.226 115.236,239.889L115.236,239.92C115.236,241.612 116.503,242.986 118.185,242.986C119.914,242.986 121.116,241.612 121.116,239.949" style="fill:rgb(252,178,43);fill-rule:nonzero;"/>
        <path d="M134.397,243.334C134.397,243.67 134.135,243.928 133.81,243.928C133.468,243.928 133.206,243.67 133.206,243.334L133.206,242.268C132.56,243.213 131.618,244.021 130.152,244.021C128.237,244.021 126.338,242.526 126.338,239.933L126.338,239.903C126.338,237.325 128.237,235.799 130.152,235.799C131.633,235.799 132.59,236.593 133.206,237.477L133.206,233.236C133.206,232.903 133.455,232.642 133.794,232.642C134.135,232.642 134.397,232.903 134.397,233.236L134.397,243.334ZM127.557,239.888L127.557,239.92C127.557,241.78 128.87,242.968 130.368,242.968C131.85,242.968 133.254,241.734 133.254,239.92L133.254,239.888C133.254,238.073 131.85,236.854 130.368,236.854C128.825,236.854 127.557,237.981 127.557,239.888" style="fill:rgb(252,178,43);fill-rule:nonzero;"/>
        <path d="M146.316,233.498C146.316,233.116 146.627,232.873 147.012,232.873C147.413,232.873 147.721,233.116 147.721,233.498L147.721,233.695C147.721,234.063 147.413,234.321 147.012,234.321C146.627,234.321 146.316,234.063 146.316,233.695L146.316,233.498ZM146.425,236.486C146.425,236.166 146.687,235.892 147.012,235.892C147.352,235.892 147.615,236.151 147.615,236.486L147.615,243.335C147.615,243.671 147.366,243.929 147.027,243.929C146.687,243.929 146.425,243.671 146.425,243.335L146.425,236.486Z" style="fill:rgb(252,178,43);fill-rule:nonzero;"/>
        <path d="M152.694,236.486C152.694,236.165 152.956,235.892 153.281,235.892C153.621,235.892 153.881,236.15 153.881,236.486L153.881,237.341C154.407,236.486 155.241,235.801 156.616,235.801C158.545,235.801 159.673,237.082 159.673,238.957L159.673,243.335C159.673,243.671 159.41,243.929 159.085,243.929C158.746,243.929 158.483,243.671 158.483,243.335L158.483,239.247C158.483,237.785 157.68,236.868 156.276,236.868C154.901,236.868 153.881,237.86 153.881,239.339L153.881,243.335C153.881,243.671 153.636,243.929 153.295,243.929C152.956,243.929 152.694,243.671 152.694,243.335L152.694,236.486Z" style="fill:rgb(252,178,43);fill-rule:nonzero;"/>
        <path d="M172.117,243.334C172.117,243.67 171.855,243.928 171.531,243.928C171.189,243.928 170.927,243.67 170.927,243.334L170.927,242.268C170.281,243.213 169.339,244.021 167.873,244.021C165.958,244.021 164.059,242.526 164.059,239.933L164.059,239.903C164.059,237.325 165.958,235.799 167.873,235.799C169.354,235.799 170.311,236.593 170.927,237.477L170.927,233.236C170.927,232.903 171.175,232.642 171.515,232.642C171.855,232.642 172.117,232.903 172.117,233.236L172.117,243.334ZM165.278,239.888L165.278,239.92C165.278,241.78 166.59,242.968 168.089,242.968C169.571,242.968 170.974,241.734 170.974,239.92L170.974,239.888C170.974,238.073 169.571,236.854 168.089,236.854C166.545,236.854 165.278,237.981 165.278,239.888" style="fill:rgb(252,178,43);fill-rule:nonzero;"/>
        <path d="M176.596,239.949L176.596,239.92C176.596,237.692 178.355,235.799 180.763,235.799C183.158,235.799 184.916,237.661 184.916,239.889L184.916,239.92C184.916,242.145 183.141,244.038 180.734,244.038C178.34,244.038 176.596,242.177 176.596,239.949M183.697,239.949L183.697,239.92C183.697,238.226 182.416,236.837 180.734,236.837C179.005,236.837 177.815,238.226 177.815,239.889L177.815,239.92C177.815,241.612 179.082,242.986 180.763,242.986C182.493,242.986 183.697,241.612 183.697,239.949" style="fill:rgb(252,178,43);fill-rule:nonzero;"/>
        <path d="M189.38,236.486C189.38,236.165 189.642,235.892 189.967,235.892C190.307,235.892 190.568,236.15 190.568,236.486L190.568,237.341C191.093,236.486 191.929,235.801 193.302,235.801C195.231,235.801 196.359,237.082 196.359,238.957L196.359,243.335C196.359,243.671 196.096,243.929 195.771,243.929C195.432,243.929 195.169,243.671 195.169,243.335L195.169,239.247C195.169,237.785 194.367,236.868 192.962,236.868C191.587,236.868 190.568,237.86 190.568,239.339L190.568,243.335C190.568,243.671 190.322,243.929 189.982,243.929C189.642,243.929 189.38,243.671 189.38,243.335L189.38,236.486Z" style="fill:rgb(252,178,43);fill-rule:nonzero;"/>
        <path d="M204.696,244.037C202.504,244.037 200.714,242.374 200.714,239.933L200.714,239.902C200.714,237.63 202.336,235.799 204.541,235.799C206.903,235.799 208.247,237.706 208.247,239.796C208.247,240.117 207.985,240.344 207.693,240.344L201.919,240.344C202.087,242.054 203.309,243.015 204.727,243.015C205.715,243.015 206.443,242.633 207.028,242.1C207.12,242.023 207.228,241.963 207.369,241.963C207.659,241.963 207.894,242.192 207.894,242.465C207.894,242.603 207.83,242.741 207.708,242.847C206.951,243.564 206.055,244.037 204.696,244.037M207.059,239.475C206.937,238.043 206.101,236.791 204.511,236.791C203.123,236.791 202.072,237.935 201.919,239.475L207.059,239.475Z" style="fill:rgb(252,178,43);fill-rule:nonzero;"/>
        <path d="M212.233,243.015C212.124,242.94 212.016,242.785 212.016,242.588C212.016,242.312 212.248,242.083 212.541,242.083C212.65,242.083 212.758,242.114 212.834,242.175C213.652,242.725 214.502,243.015 215.365,243.015C216.324,243.015 217.018,242.527 217.018,241.764L217.018,241.733C217.018,240.941 216.076,240.635 215.028,240.345C213.778,239.995 212.388,239.567 212.388,238.118L212.388,238.089C212.388,236.729 213.529,235.832 215.105,235.832C215.952,235.832 216.878,236.09 217.651,236.502C217.805,236.593 217.945,236.762 217.945,236.99C217.945,237.266 217.714,237.493 217.419,237.493C217.311,237.493 217.22,237.461 217.157,237.431C216.477,237.051 215.753,236.821 215.073,236.821C214.131,236.821 213.529,237.312 213.529,237.968L213.529,237.997C213.529,238.745 214.517,239.035 215.582,239.353C216.817,239.72 218.144,240.192 218.144,241.612L218.144,241.643C218.144,243.136 216.894,244.006 215.305,244.006C214.254,244.006 213.098,243.625 212.233,243.015" style="fill:rgb(252,178,43);fill-rule:nonzero;"/>
        <path d="M222.67,233.498C222.67,233.116 222.98,232.873 223.363,232.873C223.765,232.873 224.073,233.116 224.073,233.498L224.073,233.695C224.073,234.063 223.765,234.321 223.363,234.321C222.98,234.321 222.67,234.063 222.67,233.695L222.67,233.498ZM222.778,236.486C222.778,236.166 223.04,235.892 223.363,235.892C223.705,235.892 223.968,236.151 223.968,236.486L223.968,243.335C223.968,243.671 223.72,243.929 223.38,243.929C223.04,243.929 222.778,243.671 222.778,243.335L222.778,236.486Z" style="fill:rgb(252,178,43);fill-rule:nonzero;"/>
        <path d="M228.445,241.565L228.445,241.537C228.445,239.873 229.835,238.988 231.856,238.988C232.876,238.988 233.601,239.125 234.312,239.323L234.312,239.048C234.312,237.631 233.432,236.899 231.934,236.899C231.132,236.899 230.452,237.081 229.866,237.342C229.788,237.371 229.711,237.387 229.649,237.387C229.372,237.387 229.124,237.159 229.124,236.883C229.124,236.64 229.294,236.456 229.45,236.395C230.236,236.059 231.038,235.862 232.059,235.862C233.184,235.862 234.049,236.152 234.636,236.731C235.176,237.265 235.453,238.027 235.453,239.034L235.453,243.352C235.453,243.687 235.208,243.928 234.882,243.928C234.545,243.928 234.312,243.687 234.312,243.381L234.312,242.663C233.755,243.381 232.83,244.021 231.425,244.021C229.944,244.021 228.445,243.182 228.445,241.565M234.328,240.955L234.328,240.194C233.74,240.026 232.953,239.856 231.98,239.856C230.483,239.856 229.649,240.499 229.649,241.49L229.649,241.519C229.649,242.511 230.576,243.091 231.657,243.091C233.124,243.091 234.328,242.205 234.328,240.955" style="fill:rgb(252,178,43);fill-rule:nonzero;"/>
        <path d="M0.326,182.624C0.326,180.028 2.403,177.973 5.03,177.973L6.068,177.973C8.086,177.973 9.493,179.001 10.346,180.39L21.712,198.692L33.139,180.33C34.117,178.759 35.461,177.973 37.355,177.973L38.393,177.973C41.021,177.973 43.099,180.028 43.099,182.624L43.099,216.211C43.099,218.81 41.021,220.863 38.393,220.863C35.828,220.863 33.751,218.75 33.751,216.211L33.751,195.129L25.5,207.693C24.523,209.142 23.302,210.049 21.591,210.049C19.878,210.049 18.657,209.142 17.68,207.693L9.553,195.31L9.553,216.333C9.553,218.869 7.474,220.863 4.908,220.863C2.343,220.863 0.326,218.869 0.326,216.333L0.326,182.624Z" style="fill:rgb(252,178,43);fill-rule:nonzero;"/>
        <path d="M60.031,199.479L60.031,199.358C60.031,187.337 69.196,177.49 82.333,177.49C88.751,177.49 93.086,179.182 96.631,181.779C97.609,182.505 98.465,183.833 98.465,185.463C98.465,188 96.388,189.993 93.823,189.993C92.539,189.993 91.683,189.511 91.009,189.088C88.384,187.156 85.634,186.067 82.273,186.067C75.063,186.067 69.868,191.99 69.868,199.238L69.868,199.358C69.868,206.608 74.941,212.649 82.273,212.649C86.246,212.649 88.871,211.44 91.561,209.325C92.293,208.721 93.272,208.298 94.37,208.298C96.754,208.298 98.772,210.232 98.772,212.586C98.772,214.036 98.038,215.185 97.184,215.91C93.332,219.232 88.811,221.226 81.968,221.226C69.382,221.226 60.031,211.619 60.031,199.479" style="fill:rgb(252,178,43);fill-rule:nonzero;"/>
        <path d="M146.94,216.444C146.94,218.878 144.948,220.847 142.485,220.847C140.025,220.847 138.031,218.878 138.031,216.444L138.031,216.037C135.863,218.937 132.872,221.079 128.245,221.079C120.917,221.079 113.942,215.402 113.942,205.03L113.942,204.915C113.942,194.541 120.798,188.863 128.245,188.863C132.991,188.863 135.92,191.006 138.031,193.496L138.031,182.257C138.031,179.822 140.025,177.854 142.485,177.854C144.948,177.854 146.94,179.822 146.94,182.257L146.94,216.444ZM122.851,204.915L122.851,205.03C122.851,210.186 126.367,213.604 130.53,213.604C134.691,213.604 138.148,210.186 138.148,205.03L138.148,204.915C138.148,199.757 134.691,196.337 130.53,196.337C126.367,196.337 122.851,199.698 122.851,204.915" style="fill:rgb(252,178,43);fill-rule:nonzero;"/>
        <path d="M175.664,221.196C166.229,221.196 159.254,214.649 159.254,205.147L159.254,205.03C159.254,196.163 165.643,188.863 174.785,188.863C185.277,188.863 189.909,197.38 189.909,203.812C189.909,206.363 188.091,208.043 185.746,208.043L168.104,208.043C168.985,212.04 171.797,214.127 175.782,214.127C178.244,214.127 180.294,213.373 182.112,212.04C182.756,211.577 183.344,211.345 184.282,211.345C186.273,211.345 187.739,212.851 187.739,214.822C187.739,215.98 187.211,216.85 186.567,217.43C183.813,219.748 180.237,221.196 175.664,221.196M181.408,202.537C180.881,198.597 178.536,195.932 174.785,195.932C171.092,195.932 168.69,198.541 167.985,202.537L181.408,202.537Z" style="fill:rgb(252,178,43);fill-rule:nonzero;"/>
        <path d="M202.983,182.257C202.983,179.823 204.975,177.854 207.438,177.854C209.899,177.854 211.891,179.823 211.891,182.257L211.891,216.445C211.891,218.879 209.899,220.848 207.438,220.848C204.975,220.848 202.983,218.879 202.983,216.445L202.983,182.257Z" style="fill:rgb(252,178,43);fill-rule:nonzero;"/>
        <path d="M226.018,182.026C226.018,179.476 228.187,177.913 231.001,177.913C233.814,177.913 235.983,179.476 235.983,182.026L235.983,182.141C235.983,184.691 233.814,186.313 231.001,186.313C228.187,186.313 226.018,184.691 226.018,182.141L226.018,182.026ZM226.547,193.498C226.547,191.066 228.539,189.095 231.001,189.095C233.461,189.095 235.455,191.066 235.455,193.498L235.455,216.445C235.455,218.88 233.461,220.848 231.001,220.848C228.539,220.848 226.547,218.88 226.547,216.445L226.547,193.498Z" style="fill:rgb(252,178,43);fill-rule:nonzero;"/>
        <path d="M116.347,40.836C112.707,40.836 109.757,43.84 109.757,47.546L109.757,96.081C109.757,99.787 112.707,102.79 116.347,102.79L121.204,102.79C124.844,102.79 127.792,99.787 127.792,96.081L127.792,47.546C127.792,43.84 124.844,40.836 121.204,40.836L116.347,40.836Z" style="fill:rgb(252,178,43);fill-rule:nonzero;"/>
        <path d="M80.114,102.791L84.595,102.791C88.338,102.791 91.372,99.792 91.372,96.092L91.372,31.259L91.378,31.259C91.443,23.832 97.546,17.831 105.073,17.831C108.613,17.831 111.839,19.158 114.271,21.335L114.311,21.371C116.867,23.648 120.684,23.648 123.24,21.374L123.28,21.335C125.711,19.158 128.937,17.831 132.477,17.831C140.004,17.831 146.11,23.832 146.173,31.259L146.179,31.259L146.179,96.092C146.179,99.792 149.213,102.791 152.956,102.791L157.436,102.791C161.179,102.791 164.214,99.792 164.214,96.092L164.214,27.5C164.214,17.834 156.961,6.579 147.992,2.727C138.587,-1.313 129.337,-0.606 121.934,3.152C119.939,4.163 117.612,4.163 115.619,3.152C108.213,-0.606 98.965,-1.313 89.559,2.727C80.592,6.579 73.337,17.834 73.337,27.5L73.337,96.092C73.337,99.792 76.372,102.791 80.114,102.791" style="fill:rgb(252,178,43);fill-rule:nonzero;"/>
        <path d="M235.374,57.166C233.882,56.583 231.073,59.931 229.097,64.646L218.588,89.66C216.8,93.925 214.527,97.099 213.538,96.714C212.547,96.326 213.2,92.519 214.988,88.253L225.496,63.239C227.473,58.525 227.863,54.232 226.372,53.649C224.881,53.068 222.07,56.417 220.095,61.128L220.095,61.13L209.589,86.145C207.799,90.411 205.526,93.583 204.535,93.195C203.546,92.811 204.198,89.003 205.987,84.738L216.495,59.723L216.495,59.722C218.47,55.009 218.861,50.715 217.372,50.134C215.88,49.551 213.069,52.9 211.094,57.612L200.586,82.627C198.798,86.892 196.525,90.066 195.535,89.681L195.533,89.681C194.543,89.293 195.198,85.486 196.986,81.221L207.492,56.206L207.494,56.206C209.468,51.492 209.861,47.199 208.369,46.618C206.879,46.035 204.068,49.384 202.093,54.095C196.584,64.504 193.006,71.344 190.155,77.521L186.533,86.164C183.645,93.057 184.033,100.296 186.962,105.82C170.898,127.807 145.359,140.913 118.156,140.939C89.732,140.964 63.078,126.561 47.219,102.758C51.736,94.838 52.366,83.242 48.043,71.88C41.499,54.689 26.096,44.56 13.638,49.259C1.179,53.958 -3.616,71.701 2.927,88.894C8.815,104.362 21.875,114.106 33.51,112.48C52.52,140.704 84.286,158.008 118.156,157.97C151.024,157.933 181.851,141.763 201.04,115.014C209.643,115.535 218.557,109.725 222.537,100.229L226.159,91.587C228.562,85.238 230.956,77.936 234.494,66.762C234.494,66.761 234.497,66.758 234.497,66.757C236.472,62.042 236.866,57.75 235.374,57.166" style="fill:rgb(252,178,43);fill-rule:nonzero;"/>
    </g>
</svg>
